<svg xmlns="http://www.w3.org/2000/svg" viewBox="0 0 133.65 133.65"><defs><style>.cls-1{fill:#fff;}</style></defs><g id="Layer_2" data-name="Layer 2"><g id="Layer_1-2" data-name="Layer 1"><path class="cls-1" d="M121.65,0H12A12,12,0,0,0,0,12V121.65a12,12,0,0,0,12,12H121.65a12,12,0,0,0,12-12V12A12,12,0,0,0,121.65,0ZM24,87.5a44.26,44.26,0,0,1-2.42-7.79l18.19-3.2c.29,1.12.56,2.19.85,3.26.08.31-.14.35-.33.44l-5.47,2.45L24.44,87.3Zm1.56,3.36,16.37-7.34c.51,1,1,2,1.47,2.91L30.84,99A43.68,43.68,0,0,1,25.52,90.86Zm8,10.94L45.62,89.65c.38.42.77.89,1.19,1.33a25.13,25.13,0,0,0,13.85,7.64A29.87,29.87,0,0,0,77.8,97.21,24.52,24.52,0,0,0,87.71,90l.28-.33,0,0,12.19,12.19C83.63,119.57,51.34,120.42,33.47,101.8ZM102.86,99,90.29,86.44c.46-.93.95-1.9,1.47-2.92l16.41,7.36A43.74,43.74,0,0,1,102.86,99Zm6.87-11.51-.46-.17q-7.92-3.56-15.86-7.11c-.31-.14-.39-.27-.29-.61.29-1,.52-2,.79-3.1l18.2,3.21A44.75,44.75,0,0,1,109.73,87.5Zm3-11.42L94.42,72.85c.06-1,.15-2,.17-3a34.46,34.46,0,0,0-3.77-17.27,24.73,24.73,0,0,0-17.69-13,30,30,0,0,0-18,1.68c-6.93,3-11.47,8.22-14,15.24a32.85,32.85,0,0,0-2,10.38c-.05,1.84,0,3.68.09,5.52,0,.36,0,.53-.44.6q-8.7,1.51-17.4,3.07c-.16,0-.32,0-.52,0-.11-1-.26-1.88-.31-2.81-.09-1.63-.19-3.26-.17-4.89a47,47,0,0,1,6.18-23.19,1.62,1.62,0,0,0,.19-.86c-.34-3.53-.7-7.07-1.05-10.61s-.67-6.78-1-10.17c-.17-1.67-.34-3.35-.5-5a2.71,2.71,0,0,1,0-.29l3.33,1.4,17.85,7.53a1,1,0,0,0,.91,0A46.68,46.68,0,0,1,60.07,23a48.39,48.39,0,0,1,27.4,4.07,1,1,0,0,0,.92,0q10.23-4.33,20.48-8.63l.57-.24c0,.61-.08,1.15-.14,1.68q-.42,4.31-.85,8.59c-.31,3.05-.63,6.11-.94,9.16q-.35,3.38-.67,6.75a1.06,1.06,0,0,0,.16.54,46.26,46.26,0,0,1,5.19,13.56,50.49,50.49,0,0,1,1,8.4A52.75,52.75,0,0,1,112.78,76.08Z"/></g></g></svg>