<svg width="230" height="111" fill="none" xmlns="http://www.w3.org/2000/svg"><path d="M3.16 109V77h5.8v13.55h14.82V77h5.81v32h-5.8V95.4H8.94V109h-5.8Zm37.2.48a10 10 0 0 1-4.11-.8 6.7 6.7 0 0 1-2.88-2.45 7.13 7.13 0 0 1-1.05-3.96c0-1.36.25-2.48.75-3.36a5.8 5.8 0 0 1 2.05-2.13c.86-.53 1.84-.93 2.92-1.2 1.1-.28 2.23-.49 3.4-.61 1.4-.15 2.54-.28 3.41-.4a5.07 5.07 0 0 0 1.91-.55c.4-.26.61-.67.61-1.2v-.1c0-1.18-.35-2.09-1.05-2.74-.7-.64-1.7-.96-3.01-.96a5.4 5.4 0 0 0-3.3.9 4.5 4.5 0 0 0-1.62 2.14l-5.29-.75a8.43 8.43 0 0 1 2.07-3.65 8.97 8.97 0 0 1 3.51-2.22c1.39-.5 2.92-.75 4.6-.75 1.15 0 2.3.13 3.45.4 1.15.27 2.2.72 3.14 1.35.95.61 1.7 1.45 2.28 2.51a8.2 8.2 0 0 1 .88 3.99V109h-5.44v-3.3h-.19a6.9 6.9 0 0 1-3.78 3.27c-.93.34-2.02.51-3.27.51Zm1.46-4.15c1.14 0 2.12-.23 2.96-.67a4.96 4.96 0 0 0 1.92-1.82c.46-.75.69-1.56.69-2.45v-2.83c-.18.15-.48.28-.91.4-.42.13-.89.24-1.4.34a43.36 43.36 0 0 1-2.88.43c-.85.12-1.6.3-2.27.57-.66.26-1.19.62-1.58 1.1a2.67 2.67 0 0 0-.57 1.77c0 1.04.38 1.83 1.14 2.36.76.53 1.73.8 2.9.8Zm25.16 4.14c-2.4 0-4.45-.53-6.17-1.58a10.54 10.54 0 0 1-3.95-4.36 14.4 14.4 0 0 1-1.38-6.44c0-2.43.47-4.58 1.4-6.45a10.5 10.5 0 0 1 3.98-4.37 11.44 11.44 0 0 1 6.1-1.58c1.94 0 3.66.36 5.16 1.08a8.84 8.84 0 0 1 3.61 3.01c.9 1.3 1.4 2.8 1.53 4.53h-5.4a5.17 5.17 0 0 0-1.56-2.89 4.51 4.51 0 0 0-3.27-1.17 5.1 5.1 0 0 0-3.05.94 6 6 0 0 0-2.04 2.65 10.84 10.84 0 0 0-.72 4.16c0 1.64.24 3.04.72 4.22a6.16 6.16 0 0 0 2.01 2.7c.88.63 1.9.94 3.08.94.83 0 1.58-.16 2.23-.47a4.5 4.5 0 0 0 1.68-1.39c.44-.6.75-1.34.92-2.2h5.4a8.88 8.88 0 0 1-5.03 7.58c-1.49.72-3.24 1.09-5.25 1.09Zm17.88-8-.01-6.83h.9L94.39 85h6.61l-10.6 11.81H89.2l-4.35 4.66ZM79.71 109V77h5.65v32h-5.65Zm15.06 0-7.81-10.92 3.81-3.99L101.54 109h-6.77Zm14.7.48c-1.53 0-2.9-.27-4.11-.8a6.71 6.71 0 0 1-2.88-2.45 7.13 7.13 0 0 1-1.05-3.96c0-1.36.25-2.48.75-3.36.5-.89 1.19-1.6 2.05-2.13.87-.53 1.84-.93 2.92-1.2 1.1-.28 2.23-.49 3.4-.61 1.4-.15 2.54-.28 3.42-.4a5.07 5.07 0 0 0 1.9-.55c.4-.26.61-.67.61-1.2v-.1c0-1.18-.35-2.09-1.05-2.74-.7-.64-1.7-.96-3.01-.96a5.4 5.4 0 0 0-3.3.9 4.5 4.5 0 0 0-1.62 2.14l-5.28-.75a8.43 8.43 0 0 1 2.06-3.65 8.97 8.97 0 0 1 3.51-2.22c1.39-.5 2.92-.75 4.6-.75 1.15 0 2.3.13 3.45.4 1.15.27 2.2.72 3.14 1.35.95.61 1.71 1.45 2.28 2.51a8.2 8.2 0 0 1 .88 3.99V109h-5.44v-3.3h-.19a6.88 6.88 0 0 1-3.78 3.27c-.93.34-2.01.51-3.26.51Zm1.46-4.15c1.14 0 2.12-.23 2.96-.67a4.96 4.96 0 0 0 1.92-1.82c.46-.75.69-1.56.69-2.45v-2.83c-.18.15-.48.28-.9.4-.43.13-.9.24-1.42.34a42.86 42.86 0 0 1-2.87.43c-.84.12-1.6.3-2.27.57-.66.26-1.19.62-1.57 1.1a2.67 2.67 0 0 0-.58 1.77 2.7 2.7 0 0 0 1.14 2.36c.76.53 1.73.8 2.9.8ZM137.61 85v4.38h-13.8V85h13.8Zm-10.4-5.75h5.67v22.53c0 .76.11 1.34.34 1.75.24.4.55.67.94.81.38.15.8.22 1.28.22a5.53 5.53 0 0 0 1.65-.22l.96 4.43a10.63 10.63 0 0 1-3.33.56 9.21 9.21 0 0 1-3.83-.64 5.95 5.95 0 0 1-2.7-2.22 6.6 6.6 0 0 1-.97-3.75V79.25Zm19.1 15.69V109h-5.66V77h5.54v12.08h.28a6.94 6.94 0 0 1 2.6-3.2 8.01 8.01 0 0 1 4.54-1.2c1.66 0 3.12.36 4.36 1.05 1.24.7 2.2 1.72 2.87 3.07a10.72 10.72 0 0 1 1.03 4.92V109h-5.65V94.6c0-1.62-.42-2.88-1.25-3.77a4.45 4.45 0 0 0-3.47-1.36c-1 0-1.9.22-2.69.66a4.59 4.59 0 0 0-1.84 1.85c-.44.82-.66 1.8-.66 2.96Zm29.6 14.53c-2.34 0-4.38-.52-6.1-1.55a10.5 10.5 0 0 1-4-4.33 14.22 14.22 0 0 1-1.4-6.5c0-2.48.47-4.65 1.4-6.51a10.48 10.48 0 0 1 4-4.35 11.62 11.62 0 0 1 6.1-1.54c2.34 0 4.37.51 6.1 1.54a10.38 10.38 0 0 1 3.98 4.35 14.2 14.2 0 0 1 1.42 6.51c0 2.48-.47 4.65-1.42 6.5a10.4 10.4 0 0 1-3.99 4.33 11.62 11.62 0 0 1-6.1 1.55Zm.03-4.53c1.27 0 2.33-.35 3.19-1.05a6.32 6.32 0 0 0 1.9-2.84c.43-1.2.64-2.51.64-3.97 0-1.47-.2-2.8-.64-3.99a6.3 6.3 0 0 0-1.9-2.86 4.82 4.82 0 0 0-3.19-1.06c-1.3 0-2.39.36-3.25 1.06-.85.71-1.5 1.67-1.92 2.86a11.97 11.97 0 0 0-.63 3.99c0 1.46.21 2.78.63 3.97a6.43 6.43 0 0 0 1.92 2.84 5 5 0 0 0 3.25 1.05Zm19.73-10V109H190V85h5.4v4.08h.29a6.86 6.86 0 0 1 2.64-3.2 8.12 8.12 0 0 1 4.51-1.2c1.66 0 3.1.36 4.33 1.07 1.24.7 2.2 1.73 2.88 3.08a10.5 10.5 0 0 1 1.01 4.89V109h-5.65V94.6c0-1.61-.42-2.87-1.25-3.77a4.39 4.39 0 0 0-3.43-1.36c-.99 0-1.87.22-2.64.66a4.56 4.56 0 0 0-1.8 1.85c-.42.82-.63 1.8-.63 2.96ZM3.16 37V5h5.8v13.55h14.82V5h5.81v32h-5.8V23.4H8.94V37h-5.8Zm40.91.47c-2.4 0-4.48-.5-6.23-1.5a10.16 10.16 0 0 1-4.02-4.28 14.34 14.34 0 0 1-1.4-6.55c0-2.47.47-4.63 1.4-6.5a10.64 10.64 0 0 1 3.97-4.37c1.7-1.06 3.7-1.58 5.99-1.58 1.48 0 2.87.24 4.18.72a9.47 9.47 0 0 1 3.5 2.18c1.02 1 1.83 2.25 2.41 3.79.58 1.52.88 3.33.88 5.43v1.74H35.07v-3.82h14.25a6.08 6.08 0 0 0-.7-2.89 5.11 5.11 0 0 0-1.92-2.01 5.4 5.4 0 0 0-2.85-.74c-1.15 0-2.17.29-3.04.85a5.81 5.81 0 0 0-2.05 2.18 6.3 6.3 0 0 0-.73 2.96v3.33c0 1.4.25 2.59.76 3.59a5.46 5.46 0 0 0 2.14 2.28 6.4 6.4 0 0 0 3.22.78c.82 0 1.57-.11 2.24-.34a4.96 4.96 0 0 0 1.73-1.05c.49-.46.86-1.02 1.11-1.7l5.28.6a8.23 8.23 0 0 1-1.9 3.65 9.3 9.3 0 0 1-3.57 2.4c-1.45.57-3.1.85-4.97.85ZM63 5v32h-5.66V5h5.66Zm3.61 32V13h5.66v24H66.6Zm2.85-27.4c-.9 0-1.67-.3-2.32-.9a2.87 2.87 0 0 1-.96-2.17c0-.85.32-1.58.96-2.17.65-.6 1.42-.9 2.32-.9.9 0 1.67.3 2.3.9.66.6.98 1.32.98 2.17 0 .84-.32 1.57-.97 2.17-.64.6-1.4.9-2.31.9Zm21.72 17.3V13h5.66v24h-5.49v-4.27h-.25a7.22 7.22 0 0 1-2.67 3.3 7.77 7.77 0 0 1-4.54 1.28 8.19 8.19 0 0 1-4.18-1.04 7.28 7.28 0 0 1-2.8-3.08 10.87 10.87 0 0 1-1.02-4.9V13h5.65v14.4c0 1.53.42 2.74 1.25 3.63.84.9 1.93 1.34 3.28 1.34a5.19 5.19 0 0 0 4.35-2.42c.5-.8.76-1.82.76-3.04Zm9.27 10.1V13h5.41v4.08h.28a6.37 6.37 0 0 1 2.49-3.22 7.22 7.22 0 0 1 4.14-1.17c1.62 0 3 .4 4.1 1.19a6.2 6.2 0 0 1 2.38 3.2h.25a6.56 6.56 0 0 1 2.69-3.19 8.28 8.28 0 0 1 4.51-1.2c2.21 0 4.02.7 5.41 2.1 1.4 1.39 2.1 3.42 2.1 6.1V37h-5.68V21.77c0-1.5-.4-2.58-1.18-3.27a4.24 4.24 0 0 0-2.91-1.05 4.1 4.1 0 0 0-3.2 1.28 4.73 4.73 0 0 0-1.14 3.3V37h-5.55V21.53c0-1.24-.38-2.23-1.13-2.97a3.93 3.93 0 0 0-2.9-1.1c-.82 0-1.55.2-2.22.62-.67.4-1.2.98-1.6 1.73-.4.74-.59 1.6-.59 2.6V37h-5.66Zm-46.4 8.86V41h25.53v4.86h-9.9V73h-5.75V45.86h-9.89ZM79.53 73V49h5.49v4h.25a5.99 5.99 0 0 1 5.92-4.34 13.08 13.08 0 0 1 2.03.15v5.2a10.5 10.5 0 0 0-2.63-.33c-1.02 0-1.95.23-2.77.68a4.92 4.92 0 0 0-2.63 4.53V73h-5.65Zm21.73.48c-1.52 0-2.9-.27-4.11-.8a6.7 6.7 0 0 1-2.88-2.45 7.13 7.13 0 0 1-1.04-3.96c0-1.36.25-2.48.75-3.36a5.8 5.8 0 0 1 2.04-2.13c.87-.53 1.84-.93 2.92-1.2 1.1-.28 2.23-.49 3.4-.61a133 133 0 0 0 3.42-.4 5.07 5.07 0 0 0 1.9-.55c.41-.26.61-.67.61-1.2v-.1c0-1.18-.35-2.09-1.04-2.74-.7-.64-1.7-.96-3.02-.96a5.4 5.4 0 0 0-3.3.9 4.5 4.5 0 0 0-1.62 2.14l-5.28-.75a8.43 8.43 0 0 1 2.06-3.65 8.97 8.97 0 0 1 3.52-2.22c1.38-.5 2.91-.75 4.59-.75 1.16 0 2.3.13 3.45.4 1.15.27 2.2.72 3.14 1.35.95.61 1.71 1.45 2.28 2.51a8.2 8.2 0 0 1 .88 3.99V73h-5.44v-3.3h-.19a6.9 6.9 0 0 1-3.78 3.27c-.92.34-2.01.51-3.26.51Zm1.47-4.15c1.13 0 2.12-.23 2.95-.67a4.97 4.97 0 0 0 1.92-1.82c.46-.75.69-1.56.69-2.45v-2.83c-.18.15-.48.28-.9.4-.42.13-.9.24-1.41.34a43.6 43.6 0 0 1-2.88.43c-.84.12-1.6.3-2.27.57-.66.26-1.19.62-1.57 1.1a2.67 2.67 0 0 0-.58 1.77 2.7 2.7 0 0 0 1.14 2.36c.76.53 1.73.8 2.9.8ZM117.43 73V49h5.65v24h-5.65Zm2.84-27.4c-.9 0-1.67-.3-2.31-.9a2.87 2.87 0 0 1-.97-2.17c0-.85.32-1.58.97-2.17.64-.6 1.41-.9 2.31-.9.9 0 1.68.3 2.31.9.65.6.97 1.32.97 2.17 0 .84-.32 1.57-.97 2.17-.63.6-1.4.9-2.31.9Zm12.08 13.34V73h-5.65V49h5.4v4.08h.29a6.86 6.86 0 0 1 2.64-3.2 8.12 8.12 0 0 1 4.51-1.2c1.66 0 3.1.36 4.33 1.07 1.24.7 2.2 1.73 2.88 3.08a10.5 10.5 0 0 1 1.01 4.89V73h-5.66V58.6c0-1.61-.41-2.87-1.25-3.77a4.39 4.39 0 0 0-3.42-1.36c-.99 0-1.87.22-2.64.66a4.56 4.56 0 0 0-1.8 1.85c-.42.82-.64 1.8-.64 2.96ZM52.68 71.32H3.84a.84.84 0 0 0 0 1.68h48.84a.84.84 0 0 0 0-1.68Z" fill="#fff"/><path d="M14.79 67.95h1.68a3.37 3.37 0 0 0 6.74 0h8.42a3.37 3.37 0 0 0 6.74 0h1.68a3.37 3.37 0 1 0 6.73-.14l-.01-.09c4.32-.8 6.76-3.77 6.76-8.44 0-9.74-12.99-18.28-27.8-18.28H3.85a.84.84 0 0 0-.84.84v25.27a.84.84 0 0 0 .84.84h4.21a3.37 3.37 0 0 0 6.74 0Zm-3.37-14.32H4.68v-5.9h6.74v5.9Zm2.4 12.63h-.71V47.74h8.42v18.52h-7.7Zm13.6-18.52c.71 0 1.37.37 1.73.98l2.73 4.91h-8.67v-5.9h4.21Zm22.66 5.9H43.5a6.45 6.45 0 0 1-5.64-3.34l-1.28-2.13a.38.38 0 0 1 .02-.36c.02-.03.06-.07.09-.07h7.24a19.66 19.66 0 0 1 6.16 5.9ZM25.74 42.67c5.23 0 10.4 1.15 15.14 3.37h-4.2a1.78 1.78 0 0 0-1.54.9 2.06 2.06 0 0 0-.02 2.06l1.27 2.13a8.13 8.13 0 0 0 7.1 4.18H51c.55 1.24.84 2.6.85 3.96a7.99 7.99 0 0 1-.76 3.63.73.73 0 0 0-.08-.02H23.21v-7.57h10.1a.84.84 0 0 0 .74-1.26l-3.42-6.16a3.7 3.7 0 0 0-3.2-1.85H4.67v-3.37h21.06ZM4.68 66.26v-1.68h6.74v1.68H4.68Z" fill="#fff"/><path d="M14.79 67.95h1.68a3.37 3.37 0 0 0 6.74 0h8.42a3.37 3.37 0 0 0 6.74 0h1.68a3.37 3.37 0 1 0 6.73-.14l-.01-.09c4.32-.8 6.76-3.77 6.76-8.44 0-9.74-12.99-18.28-27.8-18.28H3.85a.84.84 0 0 0-.84.84v25.27a.84.84 0 0 0 .84.84h4.21a3.37 3.37 0 0 0 6.74 0Zm-3.37-14.32H4.68v-5.9h6.74v5.9Zm2.4 12.63h-.71V47.74h8.42v18.52h-7.7Zm13.6-18.52c.71 0 1.37.37 1.73.98l2.73 4.91h-8.67v-5.9h4.21Zm22.66 5.9H43.5a6.45 6.45 0 0 1-5.64-3.34l-1.28-2.13a.38.38 0 0 1 .02-.36c.02-.03.06-.07.09-.07h7.24a19.66 19.66 0 0 1 6.16 5.9ZM25.74 42.67c5.23 0 10.4 1.15 15.14 3.37h-4.2a1.78 1.78 0 0 0-1.54.9 2.06 2.06 0 0 0-.02 2.06l1.27 2.13a8.13 8.13 0 0 0 7.1 4.18H51c.55 1.24.84 2.6.85 3.96a7.99 7.99 0 0 1-.76 3.63.73.73 0 0 0-.08-.02H23.21v-7.57h10.1a.84.84 0 0 0 .74-1.26l-3.42-6.16a3.7 3.7 0 0 0-3.2-1.85H4.67v-3.37h21.06ZM4.68 66.26v-1.68h6.74v1.68H4.68Z" stroke="#fff"/><path d="M4.5 43H27c9 0 29 6 23 20.5" stroke="#fff" stroke-width="3" stroke-linecap="round"/></svg>