<svg width="612" height="76" fill="none" xmlns="http://www.w3.org/2000/svg"><path d="M165.67 72V4.36h12.25V33h31.34V4.36h12.29V72h-12.29V43.27h-31.34V72h-12.25Zm78.63 1.02c-3.22 0-6.12-.57-8.7-1.71a14.17 14.17 0 0 1-6.07-5.16c-1.47-2.26-2.21-5.06-2.21-8.38 0-2.87.53-5.23 1.59-7.1a12.27 12.27 0 0 1 4.32-4.5 21.82 21.82 0 0 1 6.18-2.54c2.3-.6 4.7-1.02 7.16-1.29 2.98-.3 5.39-.58 7.24-.82 1.85-.27 3.19-.66 4.03-1.2.85-.54 1.28-1.39 1.28-2.53v-.2c0-2.5-.73-4.42-2.2-5.78-1.48-1.37-3.6-2.05-6.38-2.05-2.93 0-5.25.64-6.97 1.92a9.5 9.5 0 0 0-3.44 4.52l-11.16-1.58a17.82 17.82 0 0 1 4.36-7.73c2.03-2.1 4.5-3.66 7.43-4.7a28.43 28.43 0 0 1 9.71-1.58c2.44 0 4.88.29 7.3.86 2.42.57 4.63 1.52 6.64 2.84 2 1.3 3.6 3.07 4.82 5.32 1.23 2.24 1.85 5.05 1.85 8.42V72h-11.5v-6.97h-.39a14.6 14.6 0 0 1-3.07 3.96 14.77 14.77 0 0 1-4.92 2.94 19.83 19.83 0 0 1-6.9 1.1Zm3.1-8.78a13 13 0 0 0 6.24-1.42 10.5 10.5 0 0 0 4.06-3.83 9.76 9.76 0 0 0 1.46-5.19v-5.97c-.38.3-1.02.59-1.92.85-.88.27-1.87.5-2.97.7-1.1.2-2.2.37-3.27.53l-2.8.4a20.9 20.9 0 0 0-4.8 1.18 7.95 7.95 0 0 0-3.33 2.31 5.65 5.65 0 0 0-1.22 3.77c0 2.2.8 3.86 2.4 4.98 1.61 1.13 3.66 1.69 6.15 1.69Zm53.18 8.75c-5.07 0-9.41-1.11-13.05-3.33a22.27 22.27 0 0 1-8.35-9.22c-1.94-3.94-2.91-8.48-2.91-13.6 0-5.16 1-9.7 2.97-13.65a22.18 22.18 0 0 1 8.4-9.24c3.62-2.23 7.92-3.34 12.87-3.34 4.12 0 7.76.76 10.93 2.28 3.2 1.5 5.74 3.62 7.63 6.37a18.85 18.85 0 0 1 3.24 9.58h-11.43a10.92 10.92 0 0 0-3.3-6.1c-1.72-1.66-4.02-2.48-6.9-2.48-2.45 0-4.6.66-6.44 1.98a12.7 12.7 0 0 0-4.33 5.61 22.9 22.9 0 0 0-1.52 8.79c0 3.45.5 6.43 1.52 8.91a13.01 13.01 0 0 0 4.26 5.72 10.9 10.9 0 0 0 6.5 1.98c1.77 0 3.34-.33 4.73-1a9.5 9.5 0 0 0 3.53-2.93c.95-1.28 1.6-2.83 1.95-4.66h11.43a19.92 19.92 0 0 1-3.17 9.55 18.78 18.78 0 0 1-7.47 6.47c-3.15 1.54-6.84 2.31-11.1 2.31Zm37.8-16.9-.04-14.44h1.92l18.23-20.38h13.97l-22.43 24.97h-2.47l-9.19 9.84ZM327.47 72V4.36h11.95V72h-11.95Zm31.83 0L342.8 48.92l8.06-8.43L373.6 72h-14.3Zm31.06 1.02c-3.21 0-6.1-.57-8.69-1.71a14.17 14.17 0 0 1-6.07-5.16c-1.48-2.26-2.22-5.06-2.22-8.38 0-2.87.53-5.23 1.6-7.1a12.26 12.26 0 0 1 4.32-4.5 21.82 21.82 0 0 1 6.17-2.54c2.31-.6 4.7-1.02 7.17-1.29 2.97-.3 5.38-.58 7.23-.82 1.85-.27 3.2-.66 4.03-1.2.86-.54 1.29-1.39 1.29-2.53v-.2c0-2.5-.74-4.42-2.21-5.78-1.48-1.37-3.6-2.05-6.38-2.05-2.93 0-5.25.64-6.97 1.92a9.51 9.51 0 0 0-3.43 4.52l-11.16-1.58a17.81 17.81 0 0 1 4.36-7.73c2.02-2.1 4.5-3.66 7.43-4.7a28.42 28.42 0 0 1 9.7-1.58c2.45 0 4.88.29 7.3.86 2.43.57 4.64 1.52 6.64 2.84 2 1.3 3.61 3.07 4.82 5.32 1.24 2.24 1.85 5.05 1.85 8.42V72h-11.49v-6.97h-.4A14.6 14.6 0 0 1 402.2 69a14.78 14.78 0 0 1-4.92 2.94 19.83 19.83 0 0 1-6.9 1.1Zm3.1-8.78a13 13 0 0 0 6.25-1.42 10.5 10.5 0 0 0 4.06-3.83 9.76 9.76 0 0 0 1.45-5.19v-5.97c-.37.3-1.01.59-1.91.85-.88.27-1.88.5-2.98.7-1.1.2-2.19.37-3.26.53l-2.81.4c-1.79.23-3.38.63-4.8 1.18a7.96 7.96 0 0 0-3.33 2.31 5.65 5.65 0 0 0-1.22 3.77c0 2.2.8 3.86 2.41 4.98 1.6 1.13 3.66 1.69 6.15 1.69Zm56.39-42.97v9.25h-29.17v-9.25h29.17ZM427.89 9.12h11.96v47.62c0 1.6.24 2.84.73 3.7.5.84 1.16 1.41 1.98 1.72.81.3 1.71.46 2.7.46.75 0 1.44-.05 2.05-.16.64-.11 1.13-.21 1.46-.3l2.01 9.34a22.44 22.44 0 0 1-7.04 1.19c-2.99.1-5.69-.36-8.09-1.35a12.58 12.58 0 0 1-5.7-4.69c-1.4-2.11-2.08-4.76-2.06-7.93V9.12Zm40.36 33.16V72H456.3V4.36h11.69V29.9h.59a14.67 14.67 0 0 1 5.52-6.77c2.5-1.67 5.7-2.5 9.57-2.5 3.52 0 6.6.73 9.22 2.2a14.93 14.93 0 0 1 6.07 6.48c1.46 2.84 2.18 6.3 2.18 10.4V72H489.2V41.55c0-3.41-.88-6.07-2.64-7.96-1.74-1.91-4.19-2.87-7.34-2.87-2.1 0-4 .46-5.68 1.39a9.71 9.71 0 0 0-3.9 3.93 13 13 0 0 0-1.38 6.24Zm62.56 30.71c-4.96 0-9.25-1.09-12.88-3.27a22.2 22.2 0 0 1-8.46-9.15c-1.98-3.92-2.97-8.5-2.97-13.74s1-9.83 2.97-13.77c2-3.94 4.82-7 8.46-9.18 3.63-2.18 7.92-3.27 12.88-3.27 4.95 0 9.24 1.1 12.88 3.27a21.93 21.93 0 0 1 8.42 9.18c2 3.94 3 8.53 3 13.77s-1 9.82-3 13.74a21.98 21.98 0 0 1-8.42 9.15C540.05 71.9 535.76 73 530.8 73Zm.06-9.58c2.69 0 4.93-.73 6.74-2.2 1.8-1.5 3.15-3.51 4.03-6.02.9-2.51 1.35-5.3 1.35-8.39 0-3.1-.45-5.91-1.35-8.42a13.32 13.32 0 0 0-4.03-6.04 10.2 10.2 0 0 0-6.74-2.25c-2.75 0-5.04.75-6.87 2.25a13.56 13.56 0 0 0-4.06 6.04 25.33 25.33 0 0 0-1.32 8.42c0 3.08.44 5.88 1.32 8.39.9 2.51 2.26 4.51 4.06 6.01a10.58 10.58 0 0 0 6.87 2.21Zm41.7-21.13V72H560.6V21.27h11.43v8.62h.6a14.5 14.5 0 0 1 5.57-6.77c2.58-1.67 5.76-2.5 9.55-2.5a18 18 0 0 1 9.15 2.24 15.13 15.13 0 0 1 6.07 6.5c1.46 2.84 2.17 6.29 2.15 10.34V72h-11.96V41.55c0-3.39-.88-6.04-2.64-7.96-1.74-1.91-4.15-2.87-7.23-2.87-2.1 0-3.95.46-5.58 1.39a9.62 9.62 0 0 0-3.8 3.93c-.9 1.71-1.35 3.8-1.35 6.24ZM3.16 36V4h5.8v13.55h14.82V4h5.81v32h-5.8V22.4H8.94V36h-5.8Zm40.91.47c-2.4 0-4.48-.5-6.23-1.5a10.16 10.16 0 0 1-4.02-4.28 14.34 14.34 0 0 1-1.4-6.55c0-2.47.47-4.63 1.4-6.5a10.64 10.64 0 0 1 3.97-4.37c1.7-1.06 3.7-1.58 5.99-1.58 1.48 0 2.87.24 4.18.72a9.47 9.47 0 0 1 3.5 2.18c1.02 1 1.83 2.25 2.41 3.79.58 1.52.88 3.33.88 5.43v1.74H35.07v-3.82h14.25a6.08 6.08 0 0 0-.7-2.89 5.11 5.11 0 0 0-1.92-2.01 5.4 5.4 0 0 0-2.85-.74c-1.15 0-2.17.29-3.04.85a5.81 5.81 0 0 0-2.05 2.18 6.3 6.3 0 0 0-.73 2.96v3.33c0 1.4.25 2.59.76 3.59a5.46 5.46 0 0 0 2.14 2.28 6.4 6.4 0 0 0 3.22.78c.82 0 1.57-.11 2.24-.34a4.96 4.96 0 0 0 1.73-1.05c.49-.46.86-1.02 1.11-1.7l5.28.6a8.23 8.23 0 0 1-1.9 3.65 9.3 9.3 0 0 1-3.57 2.4c-1.45.57-3.1.85-4.97.85ZM63 4v32h-5.66V4h5.66Zm3.61 32V12h5.66v24H66.6Zm2.85-27.4c-.9 0-1.67-.3-2.32-.9a2.87 2.87 0 0 1-.96-2.17c0-.85.32-1.58.96-2.17.65-.6 1.42-.9 2.32-.9.9 0 1.67.3 2.3.9.66.6.98 1.32.98 2.17 0 .84-.32 1.57-.97 2.17-.64.6-1.4.9-2.31.9Zm21.72 17.3V12h5.66v24h-5.49v-4.27h-.25a7.22 7.22 0 0 1-2.67 3.3 7.77 7.77 0 0 1-4.54 1.28 8.19 8.19 0 0 1-4.18-1.04 7.28 7.28 0 0 1-2.8-3.08 10.87 10.87 0 0 1-1.02-4.9V12h5.65v14.4c0 1.53.42 2.74 1.25 3.63.84.9 1.93 1.34 3.28 1.34a5.19 5.19 0 0 0 4.35-2.42c.5-.8.76-1.82.76-3.04Zm9.27 10.1V12h5.41v4.08h.28a6.37 6.37 0 0 1 2.49-3.22 7.22 7.22 0 0 1 4.14-1.17c1.62 0 3 .4 4.1 1.19a6.2 6.2 0 0 1 2.38 3.2h.25a6.56 6.56 0 0 1 2.69-3.19 8.28 8.28 0 0 1 4.51-1.2c2.21 0 4.02.7 5.41 2.1 1.4 1.39 2.1 3.42 2.1 6.1V36h-5.68V20.77c0-1.5-.4-2.58-1.18-3.27a4.24 4.24 0 0 0-2.91-1.05 4.1 4.1 0 0 0-3.2 1.28 4.73 4.73 0 0 0-1.14 3.3V36h-5.55V20.53c0-1.24-.38-2.23-1.13-2.97a3.93 3.93 0 0 0-2.9-1.1c-.82 0-1.55.2-2.22.62-.67.4-1.2.98-1.6 1.73-.4.74-.59 1.6-.59 2.6V36h-5.66Zm-46.4 8.86V40h25.53v4.86h-9.9V72h-5.75V44.86h-9.89ZM79.53 72V48h5.49v4h.25a5.99 5.99 0 0 1 5.92-4.34 13.08 13.08 0 0 1 2.03.15v5.2a10.5 10.5 0 0 0-2.63-.33c-1.02 0-1.95.23-2.77.68a4.92 4.92 0 0 0-2.63 4.53V72h-5.65Zm21.73.48c-1.52 0-2.9-.27-4.11-.8a6.7 6.7 0 0 1-2.88-2.45 7.13 7.13 0 0 1-1.04-3.96c0-1.36.25-2.48.75-3.36a5.8 5.8 0 0 1 2.04-2.13c.87-.53 1.84-.93 2.92-1.2 1.1-.28 2.23-.49 3.4-.61a133 133 0 0 0 3.42-.4 5.07 5.07 0 0 0 1.9-.55c.41-.26.61-.67.61-1.2v-.1c0-1.18-.35-2.09-1.04-2.74-.7-.64-1.7-.96-3.02-.96a5.4 5.4 0 0 0-3.3.9 4.5 4.5 0 0 0-1.62 2.14l-5.28-.75a8.43 8.43 0 0 1 2.06-3.65 8.97 8.97 0 0 1 3.52-2.22c1.38-.5 2.91-.75 4.59-.75 1.16 0 2.3.13 3.45.4 1.15.27 2.2.72 3.14 1.35.95.61 1.71 1.45 2.28 2.51a8.2 8.2 0 0 1 .88 3.99V72h-5.44v-3.3h-.19a6.9 6.9 0 0 1-3.78 3.27c-.92.34-2.01.51-3.26.51Zm1.47-4.15c1.13 0 2.12-.23 2.95-.67a4.97 4.97 0 0 0 1.92-1.82c.46-.75.69-1.56.69-2.45v-2.83c-.18.15-.48.28-.9.4-.42.13-.9.24-1.41.34a43.6 43.6 0 0 1-2.88.43c-.84.12-1.6.3-2.27.57-.66.26-1.19.62-1.57 1.1a2.67 2.67 0 0 0-.58 1.77 2.7 2.7 0 0 0 1.14 2.36c.76.53 1.73.8 2.9.8ZM117.43 72V48h5.65v24h-5.65Zm2.84-27.4c-.9 0-1.67-.3-2.31-.9a2.87 2.87 0 0 1-.97-2.17c0-.85.32-1.58.97-2.17.64-.6 1.41-.9 2.31-.9.9 0 1.68.3 2.31.9.65.6.97 1.32.97 2.17 0 .84-.32 1.57-.97 2.17-.63.6-1.4.9-2.31.9Zm12.08 13.34V72h-5.65V48h5.4v4.08h.29a6.86 6.86 0 0 1 2.64-3.2 8.12 8.12 0 0 1 4.51-1.2c1.66 0 3.1.36 4.33 1.07 1.24.7 2.2 1.73 2.88 3.08a10.5 10.5 0 0 1 1.01 4.89V72h-5.66V57.6c0-1.61-.41-2.87-1.25-3.77a4.39 4.39 0 0 0-3.42-1.36c-.99 0-1.87.22-2.64.66a4.56 4.56 0 0 0-1.8 1.85c-.42.82-.64 1.8-.64 2.96ZM52.68 70.32H3.84a.84.84 0 0 0 0 1.68h48.84a.84.84 0 0 0 0-1.68Z" fill="#fff"/><path d="M14.79 66.95h1.68a3.37 3.37 0 0 0 6.74 0h8.42a3.37 3.37 0 0 0 6.74 0h1.68a3.37 3.37 0 1 0 6.73-.14l-.01-.09c4.32-.8 6.76-3.77 6.76-8.44 0-9.74-12.99-18.28-27.8-18.28H3.85a.84.84 0 0 0-.84.84v25.27a.84.84 0 0 0 .84.84h4.21a3.37 3.37 0 0 0 6.74 0Zm-3.37-14.32H4.68v-5.9h6.74v5.9Zm2.4 12.63h-.71V46.74h8.42v18.52h-7.7Zm13.6-18.52c.71 0 1.37.37 1.73.98l2.73 4.91h-8.67v-5.9h4.21Zm22.66 5.9H43.5a6.45 6.45 0 0 1-5.64-3.34l-1.28-2.13a.38.38 0 0 1 .02-.36c.02-.03.06-.07.09-.07h7.24a19.66 19.66 0 0 1 6.16 5.9ZM25.74 41.67c5.23 0 10.4 1.15 15.14 3.37h-4.2a1.78 1.78 0 0 0-1.54.9 2.06 2.06 0 0 0-.02 2.06l1.27 2.13a8.13 8.13 0 0 0 7.1 4.18H51c.55 1.24.84 2.6.85 3.96a7.99 7.99 0 0 1-.76 3.63.73.73 0 0 0-.08-.02H23.21v-7.57h10.1a.84.84 0 0 0 .74-1.26l-3.42-6.16a3.7 3.7 0 0 0-3.2-1.85H4.67v-3.37h21.06ZM4.68 65.26v-1.68h6.74v1.68H4.68Z" fill="#fff"/><path d="M14.79 66.95h1.68a3.37 3.37 0 0 0 6.74 0h8.42a3.37 3.37 0 0 0 6.74 0h1.68a3.37 3.37 0 1 0 6.73-.14l-.01-.09c4.32-.8 6.76-3.77 6.76-8.44 0-9.74-12.99-18.28-27.8-18.28H3.85a.84.84 0 0 0-.84.84v25.27a.84.84 0 0 0 .84.84h4.21a3.37 3.37 0 0 0 6.74 0Zm-3.37-14.32H4.68v-5.9h6.74v5.9Zm2.4 12.63h-.71V46.74h8.42v18.52h-7.7Zm13.6-18.52c.71 0 1.37.37 1.73.98l2.73 4.91h-8.67v-5.9h4.21Zm22.66 5.9H43.5a6.45 6.45 0 0 1-5.64-3.34l-1.28-2.13a.38.38 0 0 1 .02-.36c.02-.03.06-.07.09-.07h7.24a19.66 19.66 0 0 1 6.16 5.9ZM25.74 41.67c5.23 0 10.4 1.15 15.14 3.37h-4.2a1.78 1.78 0 0 0-1.54.9 2.06 2.06 0 0 0-.02 2.06l1.27 2.13a8.13 8.13 0 0 0 7.1 4.18H51c.55 1.24.84 2.6.85 3.96a7.99 7.99 0 0 1-.76 3.63.73.73 0 0 0-.08-.02H23.21v-7.57h10.1a.84.84 0 0 0 .74-1.26l-3.42-6.16a3.7 3.7 0 0 0-3.2-1.85H4.67v-3.37h21.06ZM4.68 65.26v-1.68h6.74v1.68H4.68Z" stroke="#fff"/><path d="M4.5 42H27c9 0 29 6 23 20.5" stroke="#fff" stroke-width="3" stroke-linecap="round"/></svg>