<?xml version="1.0" encoding="UTF-8"?>
<svg id="Layer_1" data-name="Layer 1" xmlns="http://www.w3.org/2000/svg" viewBox="0 0 186.41 94.51">
  <defs>
    <style>
      .cls-1 {
        fill: #fff;
      }
    </style>
  </defs>
  <g>
    <path class="cls-1" d="M40.91,94.51h-2.83v-6.46h2.51c.44,0,.81,.05,1.13,.16s.56,.25,.72,.43c.29,.33,.43,.71,.43,1.13,0,.51-.16,.88-.49,1.13-.11,.09-.19,.14-.23,.16s-.12,.06-.23,.11c.4,.09,.72,.27,.96,.54,.24,.27,.36,.61,.36,1.02,0,.45-.15,.85-.46,1.19-.36,.4-.98,.6-1.87,.6Zm-1.39-3.85h.68c.4,0,.7-.04,.89-.13,.19-.09,.29-.27,.29-.56s-.09-.48-.27-.57c-.18-.09-.48-.14-.91-.14h-.69v1.4Zm0,2.62h.99c.41,0,.72-.05,.93-.15s.31-.3,.31-.6-.11-.5-.33-.59-.57-.14-1.05-.14h-.85v1.49Z"/>
    <path class="cls-1" d="M50.04,88.05v1.29h-3.22v1.33h2.89v1.23h-2.89v1.34h3.32v1.28h-4.76v-6.46h4.66Z"/>
    <path class="cls-1" d="M57.01,88.05v1.29h-3.22v1.33h2.89v1.23h-2.89v1.34h3.32v1.28h-4.76v-6.46h4.66Z"/>
    <path class="cls-1" d="M63.77,88.63c.45,.38,.68,.98,.68,1.77s-.23,1.38-.7,1.75-1.18,.55-2.13,.55h-.86v1.8h-1.44v-6.46h2.28c.99,0,1.71,.19,2.17,.58Zm-1.06,2.54c.17-.19,.26-.48,.26-.85s-.11-.64-.34-.79-.57-.24-1.05-.24h-.82v2.17h.97c.48,0,.81-.1,.98-.29Z"/>
    <path class="cls-1" d="M70.18,92.49c-.25-.25-.37-.55-.37-.91s.12-.66,.37-.91c.25-.25,.55-.38,.91-.38s.66,.12,.91,.38c.25,.25,.37,.55,.37,.91s-.12,.66-.37,.91c-.25,.25-.55,.37-.91,.37s-.66-.12-.91-.37Z"/>
    <path class="cls-1" d="M81.03,94.51h-2.83v-6.46h2.51c.44,0,.81,.05,1.13,.16s.56,.25,.72,.43c.29,.33,.43,.71,.43,1.13,0,.51-.16,.88-.49,1.13-.11,.09-.19,.14-.23,.16s-.12,.06-.23,.11c.4,.09,.72,.27,.96,.54,.24,.27,.36,.61,.36,1.02,0,.45-.15,.85-.46,1.19-.36,.4-.98,.6-1.87,.6Zm-1.39-3.85h.68c.4,0,.7-.04,.89-.13,.19-.09,.29-.27,.29-.56s-.09-.48-.27-.57c-.18-.09-.48-.14-.91-.14h-.69v1.4Zm0,2.62h.99c.41,0,.72-.05,.93-.15s.31-.3,.31-.6-.11-.5-.33-.59-.57-.14-1.05-.14h-.85v1.49Z"/>
    <path class="cls-1" d="M90.93,93.62c-.65,.64-1.46,.96-2.41,.96s-1.76-.32-2.41-.96c-.65-.64-.98-1.43-.98-2.38s.33-1.74,.98-2.38c.65-.64,1.46-.96,2.41-.96s1.76,.32,2.41,.96c.65,.64,.98,1.43,.98,2.38s-.33,1.74-.98,2.38Zm-.49-2.38c0-.58-.19-1.07-.55-1.47-.37-.41-.82-.61-1.36-.61s-.99,.2-1.36,.61c-.37,.41-.55,.9-.55,1.47s.19,1.07,.55,1.47,.82,.61,1.36,.61,.99-.2,1.36-.61,.55-.89,.55-1.47Z"/>
    <path class="cls-1" d="M99.49,93.62c-.65,.64-1.46,.96-2.41,.96s-1.76-.32-2.41-.96c-.65-.64-.98-1.43-.98-2.38s.33-1.74,.98-2.38c.65-.64,1.46-.96,2.41-.96s1.76,.32,2.41,.96c.65,.64,.98,1.43,.98,2.38s-.33,1.74-.98,2.38Zm-.49-2.38c0-.58-.19-1.07-.55-1.47-.37-.41-.82-.61-1.36-.61s-.99,.2-1.36,.61c-.37,.41-.55,.9-.55,1.47s.19,1.07,.55,1.47c.37,.4,.82,.61,1.36,.61s.99-.2,1.36-.61,.55-.89,.55-1.47Z"/>
    <path class="cls-1" d="M107.07,88.63c.45,.38,.68,.98,.68,1.77s-.23,1.38-.7,1.75-1.18,.55-2.13,.55h-.86v1.8h-1.44v-6.46h2.28c.99,0,1.71,.19,2.17,.58Zm-1.06,2.54c.17-.19,.26-.48,.26-.85s-.11-.64-.34-.79c-.23-.16-.58-.24-1.05-.24h-.82v2.17h.97c.48,0,.81-.1,.98-.29Z"/>
    <path class="cls-1" d="M113.48,92.49c-.25-.25-.38-.55-.38-.91s.12-.66,.38-.91c.25-.25,.55-.38,.91-.38s.66,.12,.91,.38c.25,.25,.38,.55,.38,.91s-.12,.66-.38,.91-.55,.37-.91,.37-.66-.12-.91-.37Z"/>
    <path class="cls-1" d="M124.33,94.51h-2.83v-6.46h2.51c.44,0,.81,.05,1.13,.16s.56,.25,.72,.43c.29,.33,.43,.71,.43,1.13,0,.51-.16,.88-.49,1.13-.11,.09-.19,.14-.23,.16-.04,.02-.12,.06-.23,.11,.4,.09,.72,.27,.96,.54,.24,.27,.36,.61,.36,1.02,0,.45-.15,.85-.46,1.19-.36,.4-.98,.6-1.87,.6Zm-1.39-3.85h.68c.4,0,.7-.04,.89-.13,.19-.09,.29-.27,.29-.56s-.09-.48-.27-.57c-.18-.09-.48-.14-.91-.14h-.69v1.4Zm0,2.62h.99c.41,0,.72-.05,.93-.15s.31-.3,.31-.6-.11-.5-.33-.59-.57-.14-1.05-.14h-.85v1.49Z"/>
    <path class="cls-1" d="M133.46,88.05v1.29h-3.22v1.33h2.89v1.23h-2.89v1.34h3.32v1.28h-4.76v-6.46h4.66Z"/>
    <path class="cls-1" d="M140.43,88.05v1.29h-3.22v1.33h2.89v1.23h-2.89v1.34h3.32v1.28h-4.76v-6.46h4.66Z"/>
    <path class="cls-1" d="M147.19,88.63c.45,.38,.68,.98,.68,1.77s-.23,1.38-.7,1.75-1.18,.55-2.13,.55h-.86v1.8h-1.44v-6.46h2.28c.99,0,1.71,.19,2.17,.58Zm-1.06,2.54c.17-.19,.26-.48,.26-.85s-.11-.64-.34-.79c-.23-.16-.58-.24-1.05-.24h-.82v2.17h.97c.48,0,.81-.1,.98-.29Z"/>
  </g>
  <polygon class="cls-1" points="31.86 69.9 35.21 69.9 33.53 65.74 31.86 69.9"/>
  <path class="cls-1" d="M158.76,65.59c0-1.3-1.02-2.14-2.88-2.14h-3.96v4.48h3.85c1.77,0,2.99-.8,2.99-2.34Z"/>
  <polygon class="cls-1" points="133.84 70.39 139.77 70.39 136.81 63.75 133.84 70.39"/>
  <path class="cls-1" d="M52.36,65.04h-2.04v3.81h2.04c.76,0,1.33-.16,1.71-.49,.38-.33,.58-.8,.58-1.4s-.19-1.08-.58-1.41c-.38-.33-.95-.5-1.71-.5Z"/>
  <path class="cls-1" d="M179.79,56.5H6.62c-3.64,0-6.62,2.98-6.62,6.62v11.57c0,3.64,2.98,6.62,6.62,6.62H179.79c3.64,0,6.62-2.98,6.62-6.62v-11.57c0-3.64-2.98-6.62-6.62-6.62ZM21.27,69.5c-.47,.72-1.14,1.27-2.01,1.66-.87,.39-1.89,.58-3.07,.58h-2.27v3.4h-3.68v-13.01h5.95c1.18,0,2.2,.19,3.07,.58,.87,.39,1.54,.95,2.01,1.67,.47,.72,.71,1.58,.71,2.56s-.24,1.83-.71,2.55Zm16.04,5.65l-1.02-2.53h-5.5l-1.02,2.53h-3.75l5.74-13.01h3.62l5.76,13.01h-3.83Zm17.38,0l-2.36-3.46h-2.01v3.46h-3.68v-13.01h5.95c1.18,0,2.2,.19,3.07,.58,.87,.39,1.54,.95,2.01,1.67,.47,.72,.71,1.58,.71,2.56s-.22,1.76-.66,2.46c-.44,.7-1.07,1.25-1.89,1.64l2.81,4.09h-3.94Zm20.05,0h-9.89v-13.01h3.68v10.09h6.21v2.92Zm16.35,0h-10.45v-13.01h10.2v2.84h-6.56v2.19h5.78v2.75h-5.78v2.38h6.8v2.84Zm13.36-4.67v4.67h-3.68v-4.72l-4.96-8.29h3.88l3.08,5.17,3.09-5.17h3.57l-4.98,8.34Zm19.7,4.67h-8.79v-13.01h1.47v11.65h7.32v1.36Zm17.71,0l-1.52-3.44h-7.08l-1.54,3.44h-1.51l5.93-13.1h1.38l5.93,13.1h-1.58Zm14.39,0h-5.78v-13.01h5.54c2.57,0,4.24,1.26,4.24,3.25,0,1.71-1.04,2.58-2.06,3.03,1.54,.46,2.79,1.36,2.79,3.16,0,2.25-1.88,3.57-4.72,3.57Zm16.56,.19c-2.06,0-3.75-.69-5.32-2.08l.91-1.08c1.36,1.23,2.66,1.84,4.46,1.84s2.9-.91,2.9-2.23c0-1.23-.65-1.91-3.38-2.49-2.99-.65-4.37-1.62-4.37-3.77s1.8-3.57,4.27-3.57c1.9,0,3.25,.54,4.57,1.6l-.85,1.13c-1.21-.98-2.42-1.41-3.75-1.41-1.69,0-2.77,.93-2.77,2.12s.67,1.93,3.53,2.55c2.9,.63,4.24,1.69,4.24,3.7,0,2.25-1.86,3.7-4.44,3.7Z"/>
  <path class="cls-1" d="M15.97,65.04h-2.04v3.81h2.04c.76,0,1.33-.16,1.71-.49,.38-.33,.58-.8,.58-1.4s-.19-1.08-.58-1.41c-.38-.33-.95-.5-1.71-.5Z"/>
  <path class="cls-1" d="M156.03,69.24h-4.11v4.59h4.37c1.97,0,3.2-.87,3.2-2.34s-1.19-2.25-3.46-2.25Z"/>
  <g>
    <g>
      <g>
        <path class="cls-1" d="M95.45,15.09c.09,0,.16,.02,.24,.02,1.54,.02,3.09,.01,4.63,.05,2.17,.05,4.34,.12,6.51,.19,1,.03,2,.07,3.01,.13,1.37,.07,2.73,.16,4.1,.24,.89,.05,1.77,.11,2.66,.18,.59,.04,1.18,.08,1.77,.15,1.25,.16,2.31,1.2,2.52,2.44,.04,.23,.06,.47,.05,.7-.03,1.6-.07,3.21-.12,4.81,0,.16,3.7,3.14,4.81,4.49,.37,.45,.5,.93,.44,1.5-.14,1.27-.61,6.35-.73,7.63-.04,.39-.23,.71-.53,.96-.66,.57-5.62,3.69-5.64,3.86-.23,1.53-.45,3.07-.73,4.59-.25,1.37-1.38,2.32-2.77,2.45-1.23,.11-2.46,.24-3.7,.35-.95,.09-1.91,.16-2.87,.23-1.14,.08-2.28,.17-3.42,.24-.7,.05-1.39,.08-2.09,.12-1.55,.07-3.1,.14-4.65,.2-.73,.03-1.46,.04-2.2,.06-3.27,.07-6.54,.07-9.81,0-1.58-.04-3.16-.09-4.73-.16-1.59-.07-3.19-.16-4.78-.26-1.59-.1-3.18-.24-4.77-.36-.55-.04-1.1-.07-1.64-.17-1.22-.23-2.05-.95-2.39-2.15-.35-1.22-.64-2.46-.94-3.7-.13-.51-.23-1.02-.33-1.53-.03-.16-4.13-2.51-5.38-3.55-.44-.37-.66-.8-.72-1.36-.19-1.74-.79-6.69-.89-7.42-.07-.5,.05-.93,.38-1.34,1.08-1.35,4.79-4.37,4.79-4.56,.03-1.56,.07-3.12,.12-4.68,.03-1.09,.48-1.97,1.4-2.58,.43-.29,.91-.44,1.42-.48,1.53-.13,3.06-.27,4.59-.38,1.83-.14,3.67-.26,5.51-.37,1.34-.08,2.68-.14,4.02-.21,2.93-.14,5.86-.22,8.79-.26,.04,0,.09,0,.16,0m3.89,.59c-3.99,.02-7.99,.1-11.98,.27-1.08,.04-2.16,.1-3.24,.15-.78,.04-1.57,.09-2.35,.14-.9,.06-1.79,.11-2.69,.17-.82,.06-1.63,.12-2.45,.18-.74,.06-1.48,.12-2.21,.18-.73,.06-1.46,.11-2.19,.21-1.07,.14-1.92,1.07-2,2.15-.11,1.67-.15,3.34-.16,5.02,0,.68,.07,1.36,.13,2.03,.09,.95,.19,1.89,.29,2.84,.1,.96,.19,1.93,.29,2.89,.09,.95,.19,1.89,.29,2.83,.1,1,.2,1.99,.3,2.99,.08,.76,.15,1.53,.23,2.29,.06,.55,.1,1.1,.2,1.63,.17,.92,.38,1.83,.59,2.73,.24,1,.49,2,.78,2.98,.26,.89,.88,1.44,1.79,1.65,.23,.05,.46,.07,.7,.09,1.12,.1,2.24,.19,3.36,.28,1.16,.09,2.33,.18,3.5,.25,1.12,.07,2.25,.12,3.37,.17,1.79,.07,3.57,.15,5.36,.18,4.43,.09,8.86,.06,13.29-.13,1.73-.08,3.47-.16,5.2-.26,1.68-.1,3.36-.23,5.03-.37,1.58-.13,3.16-.28,4.74-.43,1.21-.12,2.05-.88,2.27-2.04,.08-.45,.15-.91,.22-1.37,.17-1.11,.34-2.22,.5-3.33,.12-.85,.23-1.71,.34-2.57,.09-.74,.15-1.47,.22-2.21,.08-.84,.16-1.68,.24-2.52,.09-1,.19-2,.28-2.99,.1-1.06,.21-2.12,.29-3.18,.09-1.24,.15-2.49,.2-3.73,.07-1.73,.11-3.45,.16-5.18,0-.26,.02-.52,0-.78-.06-1.18-.93-2.13-2.11-2.27-.67-.08-1.35-.11-2.03-.16-1.5-.1-3.01-.21-4.51-.3-1.23-.07-2.46-.13-3.68-.18-1.69-.07-3.38-.14-5.07-.18-2.49-.06-4.99-.08-7.48-.12Zm-29.77,9.44s-3.56,2.65-4.53,3.87c-.21,.27-.28,.55-.23,.88,.12,.94,.73,6.01,.92,7.6,.04,.32,.16,.55,.4,.76,1.15,.97,4.97,3.01,5.07,3.09-.55-5.44-1.09-10.82-1.63-16.2Zm55.2-.03c-.02,.09-.12,1.07-.17,1.5-.08,.82-.15,1.65-.23,2.47-.08,.85-.16,1.7-.24,2.55-.08,.82-.16,1.63-.23,2.45-.08,.83-.16,1.67-.24,2.5-.08,.83-.16,1.67-.24,2.5-.06,.68-.18,2.14-.17,2.22,.07-.05,3.91-2.14,5.09-3.15,.24-.21,.36-.46,.39-.77,.07-.82,.55-5.93,.73-7.68,.03-.3-.04-.55-.23-.78-.96-1.21-4.39-3.74-4.46-3.81Z"/>
        <path class="cls-1" d="M96.04,14.61h1.24c1.02,.02,2.04,.02,3.05,.05,2.03,.04,4.07,.11,6.1,.17h.42c1.01,.05,2.01,.09,3.02,.14,1.37,.07,2.74,.16,4.1,.24,.89,.05,1.78,.11,2.67,.18l.34,.02c.49,.03,.98,.07,1.46,.13,1.46,.19,2.7,1.39,2.95,2.85,.04,.26,.06,.53,.06,.79-.03,1.54-.07,3.08-.12,4.62,.21,.2,.71,.64,1.16,1.03,1.2,1.04,2.84,2.47,3.53,3.33,.45,.55,.62,1.16,.55,1.87-.09,.87-.35,3.58-.54,5.59l-.19,2.03c-.05,.51-.29,.94-.7,1.29-.34,.29-1.59,1.11-2.92,1.99-1,.66-2.21,1.46-2.59,1.74l-.14,.93c-.18,1.17-.35,2.35-.56,3.51-.28,1.56-1.58,2.71-3.22,2.85-.59,.05-1.18,.11-1.78,.17-.64,.06-1.28,.13-1.92,.18-.96,.09-1.91,.16-2.87,.23-1.14,.08-2.28,.17-3.42,.24-.7,.05-1.4,.09-2.1,.12-1.55,.07-3.1,.14-4.65,.2-.73,.03-1.47,.04-2.21,.06-1.67,.04-3.32,.05-4.94,.05s-3.3-.02-4.89-.06c-1.58-.04-3.16-.09-4.74-.16-1.6-.07-3.19-.16-4.79-.26-1.32-.09-2.64-.19-3.96-.3l-1.19-.09c-.45-.03-.89-.07-1.33-.15-1.43-.27-2.39-1.14-2.78-2.5-.28-.97-.51-1.94-.75-2.92l-.19-.79c-.11-.46-.21-.92-.3-1.39-.26-.18-.93-.6-1.53-.97-1.32-.82-2.97-1.84-3.71-2.46-.53-.44-.83-.99-.9-1.69-.19-1.74-.79-6.68-.88-7.41-.08-.64,.07-1.21,.48-1.72,.66-.83,2.19-2.18,3.41-3.27,.5-.45,1.06-.94,1.27-1.16,.03-1.51,.07-3.01,.12-4.52,.04-1.29,.58-2.29,1.62-2.98,.48-.32,1.04-.51,1.66-.57l.94-.08c1.22-.11,2.44-.21,3.66-.3,1.84-.14,3.67-.26,5.51-.37,1.34-.08,2.69-.14,4.03-.21,2.78-.13,5.69-.22,8.65-.26m4.2,1.59c-4.28,.03-8.19,.11-11.96,.27-1.08,.04-2.16,.1-3.24,.15-.6,.03-1.21,.07-1.81,.11l-3.22,.2c-.81,.05-1.63,.12-2.45,.18-.74,.06-1.47,.12-2.21,.18l-.51,.04c-.55,.05-1.1,.09-1.65,.17-.83,.11-1.5,.83-1.56,1.68-.12,1.75-.15,3.51-.16,4.99,0,.59,.05,1.17,.11,1.78l1.45,14.4c.04,.41,.08,.82,.16,1.22,.17,.91,.37,1.81,.59,2.71,.24,.99,.48,1.98,.77,2.96,.21,.7,.67,1.13,1.42,1.3,.2,.05,.41,.06,.62,.08,1.12,.1,2.24,.19,3.36,.28,1.16,.09,2.33,.17,3.49,.25,1.12,.07,2.24,.12,3.36,.17l.77,.03c1.53,.06,3.05,.12,4.58,.15,4.74,.09,9.08,.05,13.25-.13,1.73-.08,3.46-.16,5.19-.26,1.68-.1,3.35-.23,5.02-.36,1.4-.12,2.81-.25,4.21-.38l.52-.05c.98-.09,1.65-.69,1.82-1.63,.07-.38,.13-.76,.19-1.13l.15-.97c.13-.86,.26-1.72,.39-2.58,.12-.85,.23-1.7,.33-2.55,.06-.55,.12-1.1,.17-1.65l.67-7.03c.07-.73,.14-1.47,.19-2.21,.09-1.24,.15-2.48,.2-3.72s.08-2.48,.12-3.72l.04-1.45c0-.31,.02-.53,0-.75-.05-.95-.73-1.69-1.66-1.79-.53-.06-1.06-.1-1.59-.13l-1.21-.08c-1.24-.09-2.48-.17-3.72-.24-1.22-.07-2.45-.13-3.67-.18l-.79-.03c-1.42-.06-2.85-.12-4.27-.15-1.74-.04-3.47-.06-5.21-.09l-2.26-.03Zm-30.18,9.88c-1.07,.82-3.05,2.41-3.72,3.25-.12,.15-.15,.29-.13,.5,.12,.94,.74,6.02,.92,7.61,.02,.19,.09,.31,.23,.43,.79,.67,2.96,1.9,4.15,2.56l-1.44-14.35Zm56.01-.02c-.02,.23-.05,.45-.06,.61l-1.18,12.46c-.03,.34-.07,.84-.11,1.28,1.19-.67,3.39-1.94,4.2-2.64,.13-.11,.19-.24,.21-.43,.07-.82,.55-5.94,.73-7.68,.02-.17-.02-.29-.12-.41-.66-.83-2.62-2.37-3.67-3.19Z"/>
      </g>
      <path class="cls-1" d="M114.74,34.98c0,1.53-.27,3-.98,4.37-.72,1.41-1.78,2.46-3.27,3.05-1.06,.42-2.17,.5-3.29,.3-1.81-.32-3.33-1.21-4.64-2.47-1.95-1.86-3.16-4.13-3.76-6.75-.2-.87-.31-1.75-.3-2.64,0-1.53,.28-3,.99-4.37,.74-1.43,1.82-2.5,3.35-3.07,1.2-.45,2.44-.47,3.68-.17,1.47,.35,2.74,1.1,3.87,2.1,1.9,1.68,3.14,3.78,3.85,6.2,.33,1.13,.5,2.28,.5,3.45Z"/>
      <path class="cls-1" d="M78.45,42.62c-2.77-.09-4.66-1.38-5.79-3.8-.58-1.24-.79-2.56-.75-3.92,.07-2.8,1.04-5.28,2.74-7.47,1.06-1.37,2.37-2.46,3.95-3.19,1.03-.48,2.11-.77,3.26-.75,2.16,.03,3.86,.94,5.08,2.72,.7,1.02,1.08,2.16,1.25,3.38,.32,2.29-.12,4.46-1.08,6.53-.79,1.7-1.89,3.17-3.34,4.36-1.22,1.01-2.59,1.73-4.17,2.01-.4,.07-.81,.1-1.14,.14Z"/>
    </g>
    <g>
      <path class="cls-1" d="M94.65,7.61c-.14,.03-.29,.04-.41,.05-.97-.03-1.63-.48-2.04-1.3l-.04,.12c-1.04,3.05-1.64,5.92-1.82,8.77l-.05,.8h4.24l.04-.7c.16-2.46,.64-4.94,1.47-7.56l.22-.7-.26-.09c-.4,.3-.85,.53-1.36,.62Zm-1.53,6.93h-1.23c.21-2.23,.68-4.5,1.44-6.87l1.06,.36c-.67,2.24-1.08,4.38-1.27,6.51Z"/>
      <path class="cls-1" d="M94.27,8.41h-.06c-1.26-.04-2.21-.67-2.74-1.81-.24-.52-.36-1.11-.34-1.75,.03-1.14,.41-2.19,1.15-3.14,.47-.6,1.04-1.06,1.7-1.37C94.48,.11,94.95,0,95.48,0c1.02,.01,1.86,.47,2.44,1.31,.3,.44,.49,.96,.58,1.54,.13,.92-.03,1.85-.45,2.77-.34,.73-.81,1.35-1.41,1.84-.57,.47-1.19,.77-1.85,.88-.12,.02-.25,.03-.36,.05l-.16,.02Zm1.16-6.91c-.27,0-.54,.07-.83,.2-.45,.21-.82,.51-1.15,.93-.54,.69-.81,1.43-.83,2.26-.01,.41,.06,.76,.2,1.08,.29,.61,.71,.9,1.39,.94h.06c.08-.01,.16-.02,.24-.04,.4-.07,.78-.26,1.16-.57,.42-.34,.76-.79,1-1.31,.31-.67,.42-1.3,.33-1.94-.05-.36-.16-.65-.32-.9-.3-.44-.69-.65-1.23-.66h-.02Z"/>
    </g>
  </g>
</svg>