<svg width="119" height="32" viewBox="0 0 119 32" fill="none" xmlns="http://www.w3.org/2000/svg">
<g clip-path="url(#clip0_45_3919)">
<path d="M55.2879 4.69467C56.2178 4.68067 57.1417 4.84605 58.0091 5.18173C58.7837 5.48546 59.4903 5.94018 60.0877 6.51945C60.6584 7.07698 61.1076 7.74652 61.4071 8.48601C61.7153 9.25026 61.8707 10.0676 61.8644 10.8916C61.8951 12.0887 61.607 13.2725 61.0298 14.3216C60.4022 15.3461 59.4414 16.1236 58.3086 16.5237V16.5878C58.8636 16.7268 59.3797 16.9903 59.8178 17.3584C60.2166 17.7027 60.5477 18.1184 60.7942 18.584C61.0514 19.0741 61.237 19.5986 61.3453 20.1413C61.4562 20.7024 61.5326 21.2698 61.574 21.8403C61.5946 22.197 61.6152 22.6178 61.6358 23.1003C61.6563 23.5828 61.6952 24.0744 61.7478 24.5775C61.7952 25.0602 61.8785 25.5386 61.997 26.0089C62.0972 26.4195 62.2741 26.8075 62.5184 27.1523H57.5837C57.2904 26.3321 57.1209 25.4728 57.0807 24.6026C57.0182 23.6163 56.9244 22.6727 56.7994 21.7717C56.7239 20.8253 56.3491 19.9275 55.7292 19.2083C54.9801 18.5935 54.0186 18.2993 53.0538 18.3897H48.1145V27.1683H43.1753V4.69467H55.2879ZM53.5271 14.8636C54.4401 14.9328 55.3466 14.6643 56.0745 14.109C56.3835 13.7842 56.6194 13.3969 56.7661 12.9733C56.9128 12.5496 56.9671 12.0994 56.9252 11.6531C56.9646 11.219 56.9089 10.7816 56.762 10.3713C56.6151 9.96094 56.3805 9.58758 56.0745 9.2772C55.3419 8.73252 54.4375 8.47028 53.5271 8.5386H48.1145V14.8636H53.5271Z" fill="white"/>
<path d="M76.5381 4.69434L84.9371 27.1589H79.8058L78.1068 22.1556H69.71L67.9493 27.1589H62.978L71.4731 4.69434H76.5381ZM76.8331 18.474L73.9907 10.2305H73.9267L70.9997 18.474H76.8331Z" fill="white"/>
<path d="M90.9421 4.69434V14.0058L99.7208 4.69434H105.888L97.1094 13.5668L106.736 27.1566H100.539L93.7754 17.0585L90.9421 19.9215V27.1566H86.0029V4.69434H90.9421Z" fill="white"/>
<path d="M118.174 9.92861C118.203 10.9994 117.912 12.0544 117.338 12.9587C116.764 13.863 115.933 14.5753 114.952 15.0046C113.971 15.4338 112.883 15.5604 111.83 15.3682C110.776 15.1759 109.804 14.6735 109.037 13.9253C108.271 13.1771 107.745 12.2172 107.527 11.1685C107.31 10.1197 107.41 9.02982 107.815 8.0384C108.221 7.04698 108.913 6.19912 109.803 5.60338C110.693 5.00764 111.741 4.69113 112.812 4.69437C113.509 4.68072 114.202 4.80584 114.85 5.06246C115.499 5.31908 116.09 5.70206 116.589 6.18914C117.088 6.67621 117.485 7.25765 117.757 7.89963C118.029 8.54161 118.171 9.23132 118.174 9.92861ZM108.758 9.92861C108.741 10.4744 108.834 11.0179 109.032 11.5267C109.23 12.0354 109.529 12.499 109.911 12.8895C110.292 13.28 110.749 13.5895 111.253 13.7994C111.757 14.0093 112.298 14.1153 112.844 14.111C113.381 14.1089 113.912 13.9989 114.406 13.7876C114.899 13.5762 115.346 13.2678 115.718 12.8807C116.09 12.4936 116.381 12.0356 116.572 11.534C116.764 11.0324 116.853 10.4974 116.834 9.96063C116.854 9.41903 116.766 8.87889 116.573 8.37236C116.38 7.86583 116.087 7.40326 115.712 7.01218C115.337 6.62111 114.887 6.30952 114.389 6.09596C113.89 5.8824 113.354 5.77124 112.812 5.76909C112.27 5.76694 111.734 5.87385 111.234 6.08345C110.734 6.29306 110.281 6.60107 109.903 6.98916C109.525 7.37725 109.228 7.83748 109.032 8.34247C108.835 8.84745 108.742 9.38687 108.758 9.92861ZM111.982 12.6727H110.77V7.4384C111.433 7.32198 112.106 7.26914 112.78 7.28062C113.414 7.22671 114.05 7.35946 114.609 7.6625C114.774 7.80287 114.906 7.97843 114.994 8.17629C115.082 8.37416 115.125 8.58928 115.119 8.80585C115.096 9.09874 114.978 9.37602 114.782 9.595C114.586 9.81398 114.324 9.96253 114.035 10.0178V10.0819C114.296 10.1878 114.523 10.3628 114.691 10.5881C114.859 10.8133 114.963 11.0803 114.991 11.3601C115.043 11.8149 115.173 12.2574 115.375 12.6681H114.067C113.865 12.2654 113.725 11.8345 113.651 11.3899C113.555 10.8159 113.237 10.5598 112.565 10.5598H111.991L111.982 12.6727ZM112.014 9.69995H112.588C113.258 9.69995 113.802 9.47128 113.802 8.93162C113.802 8.45598 113.45 8.13356 112.684 8.13356C112.459 8.12932 112.234 8.15158 112.014 8.19987V9.69995Z" fill="white"/>
<path d="M18.6939 9.48784C19.7673 9.45542 20.8363 9.63813 21.8381 10.0252L21.8655 10.0412H21.8907C21.9181 10.0549 22.5767 10.3613 22.4486 11.667C22.4396 11.9053 22.383 12.1393 22.2822 12.3553C22.1813 12.5713 22.0382 12.765 21.8613 12.9248C21.6844 13.0846 21.4773 13.2074 21.2522 13.286C21.0271 13.3645 20.7886 13.3972 20.5507 13.382H20.4066C18.1885 13.4323 16.7044 13.4621 16.2242 13.4621C15.8218 13.4621 15.2478 13.4849 14.7562 13.5124C14.7425 12.8264 14.715 11.5916 14.6967 11.1479C14.6853 10.7981 14.6245 10.4517 14.5161 10.1189C15.714 9.79821 16.9386 9.58697 18.1748 9.48784C18.3531 9.47869 18.5292 9.47412 18.703 9.47412" fill="white"/>
<path d="M19.3727 4.9917C19.6288 4.9917 19.8575 4.9917 20.0587 5.00771C20.26 5.02372 20.3949 5.02143 20.5389 5.02143C21.2044 5.02143 22.0504 5.1289 22.3203 5.64112C22.5894 6.11574 22.6671 6.67523 22.5375 7.20522C22.4703 7.57871 22.2954 7.92444 22.0344 8.19994C21.9231 8.3176 21.8039 8.42762 21.6777 8.52922C20.7291 8.27141 19.7498 8.14371 18.7667 8.14963C18.4809 8.14963 18.1951 8.14963 17.9161 8.17935C16.5164 8.29792 15.1325 8.55998 13.7863 8.9614C13.4639 8.6976 13.101 8.48757 12.7116 8.33942C12.5363 8.26811 12.3559 8.21001 12.1719 8.16563C13.2251 7.08991 14.4821 6.23481 15.8695 5.65027C16.9881 5.22527 18.1739 5.00454 19.3704 4.99856" fill="white"/>
<path d="M18.6184 0C18.7762 0 18.934 0 19.0918 0.0114335C21.8129 0.146348 22.1811 0.516793 22.204 1.92311C22.1695 2.26787 22.0614 2.60122 21.887 2.90063C21.7127 3.20005 21.4761 3.45856 21.1932 3.65871C20.9166 3.63356 20.3403 3.58554 19.6429 3.58554C18.5604 3.56285 17.4809 3.70551 16.4415 4.00857C14.7887 4.51626 13.2647 5.37419 11.9733 6.52394C11.253 7.17793 10.5418 7.95541 10.272 8.25497C9.96713 8.36685 9.68568 8.53433 9.44192 8.74889C9.36194 8.82126 9.28563 8.89758 9.21325 8.97756C8.94185 8.7035 8.62748 8.47564 8.28257 8.30299C7.89915 8.14296 7.49033 8.05237 7.0752 8.03544C7.86841 6.12944 9.08152 4.42702 10.6241 3.05502C12.8735 1.17338 15.6875 0.0980083 18.6184 0Z" fill="white"/>
<path d="M21.8332 14.5181C22.1558 15.7157 22.3678 16.9404 22.4666 18.1768C22.5627 19.4208 22.3871 20.6708 21.9521 21.8401L21.9338 21.8698V21.895C21.9223 21.9179 21.6685 22.4689 20.6441 22.4689C20.5325 22.4694 20.4211 22.4633 20.3102 22.4507C20.0721 22.4414 19.8382 22.3846 19.6223 22.2836C19.4065 22.1826 19.213 22.0395 19.0532 21.8627C18.8934 21.6859 18.7706 21.4789 18.6919 21.2539C18.6133 21.029 18.5804 20.7906 18.5952 20.5527V20.0954C18.5723 19.0412 18.5243 16.8437 18.5243 16.2263C18.5243 15.8261 18.4992 15.2521 18.4717 14.7582C19.9741 14.7262 20.5801 14.7079 20.8087 14.6988C21.1578 14.6871 21.5034 14.6263 21.8355 14.5181" fill="white"/>
<path d="M23.8023 12.1768C24.8757 13.231 25.7305 14.4868 26.3177 15.8721C26.8232 17.2094 27.0391 18.6388 26.9511 20.0659V20.155C26.9511 20.2968 26.9511 20.4249 26.9511 20.5438C26.9511 21.2069 26.8436 22.0553 26.3314 22.3251C26.0136 22.5019 25.6568 22.597 25.2932 22.6018C25.1171 22.5998 24.9416 22.5799 24.7696 22.5423C24.3945 22.4743 24.0474 22.2987 23.7703 22.037C23.6531 21.9267 23.5438 21.8082 23.4433 21.6825C23.7657 20.4564 23.8801 19.1849 23.7817 17.9209C23.6629 16.5259 23.4016 15.1467 23.002 13.8049C23.2657 13.4816 23.4758 13.1179 23.6239 12.7279C23.6956 12.5527 23.7537 12.3723 23.7977 12.1882" fill="white"/>
<path d="M23.9282 7.07491C25.8361 7.86704 27.5403 9.08027 28.9132 10.6239C30.9104 12.9874 31.9907 15.9905 31.9568 19.0846C31.8219 21.8081 31.4446 22.1762 30.0223 22.1968C29.681 22.1619 29.3513 22.0538 29.0557 21.8797C28.7601 21.7057 28.5056 21.4699 28.3095 21.1884C28.4799 19.5933 28.3614 17.9805 27.9597 16.4275C27.4525 14.7744 26.5945 13.2503 25.4443 11.9593C24.7583 11.2161 23.974 10.4912 23.7133 10.258C23.6008 9.95342 23.4334 9.67208 23.2193 9.42792C23.1471 9.34778 23.0708 9.27145 22.9907 9.19925C23.2647 8.92784 23.4926 8.61347 23.6653 8.26856C23.8259 7.88603 23.9173 7.47799 23.9351 7.06348" fill="white"/>
<path d="M17.2323 18.4763C17.2484 19.1989 17.2758 20.404 17.2941 20.8385C17.3055 21.1883 17.3663 21.5347 17.4747 21.8675C16.2771 22.1896 15.0524 22.4009 13.816 22.4986C13.6453 22.5077 13.4761 22.5123 13.3084 22.5123C12.2312 22.5448 11.1584 22.3621 10.1527 21.9749L10.1253 21.9521H10.1024C10.0727 21.9406 9.41639 21.6182 9.53987 20.3285C9.54859 20.0904 9.60481 19.8564 9.70523 19.6403C9.80565 19.4243 9.94824 19.2304 10.1247 19.0702C10.3011 18.91 10.5077 18.7867 10.7324 18.7075C10.9571 18.6283 11.1954 18.5947 11.4333 18.6089H11.662C12.5058 18.5838 15.0714 18.522 15.778 18.522C16.1942 18.522 16.7933 18.4946 17.2438 18.4717" fill="white"/>
<path d="M18.1997 23.0384C18.523 23.3027 18.8866 23.5135 19.2767 23.6627C19.4516 23.7347 19.6321 23.792 19.8164 23.8342C18.7628 24.9085 17.5069 25.7634 16.1211 26.3496C15.0008 26.7744 13.8136 26.9951 12.6156 27.0013C12.364 27.0013 12.1376 27.0013 11.9296 26.983C11.7558 26.983 11.6003 26.9716 11.4562 26.9716C10.7931 26.9716 9.94695 26.8641 9.67712 26.3519C9.40844 25.8771 9.33076 25.3178 9.45989 24.7878C9.52809 24.4139 9.70277 24.0677 9.96296 23.7908C10.0746 23.6734 10.1938 23.5634 10.3197 23.4615C11.2685 23.7189 12.2476 23.8473 13.2307 23.8434C13.5119 23.8434 13.8001 23.8434 14.0813 23.8113C15.4764 23.6914 16.8555 23.4293 18.1974 23.0293" fill="white"/>
<path d="M22.7824 23.0156C23.0549 23.3107 23.3851 23.5467 23.7524 23.7091C24.1198 23.8715 24.5165 23.9569 24.9181 23.96C24.1261 25.8692 22.912 27.5743 21.3669 28.9473C19.1141 30.8288 16.297 31.9033 13.3635 32C13.2103 32 13.0571 32 12.9061 32C10.185 31.8651 9.81681 31.4924 9.79395 30.0861C9.8283 29.7413 9.93631 29.4079 10.1107 29.1084C10.2851 28.809 10.5217 28.5505 10.8047 28.3505C11.0791 28.3779 11.6576 28.4259 12.355 28.4259C13.4374 28.4476 14.5168 28.305 15.5564 28.0029C17.2094 27.4955 18.7334 26.6375 20.0246 25.4875C20.7449 24.8335 21.4584 24.0538 21.7282 23.7542C22.0323 23.6433 22.3131 23.4766 22.556 23.2626C22.6374 23.1876 22.7137 23.1074 22.7847 23.0225" fill="white"/>
<path d="M11.3444 9.55602C11.4519 9.55602 11.5731 9.55602 11.6782 9.57431C11.9164 9.58332 12.1503 9.63982 12.3663 9.74051C12.5823 9.84121 12.7759 9.98407 12.9359 10.1607C13.0959 10.3373 13.219 10.5441 13.2979 10.7689C13.3769 10.9938 13.41 11.2321 13.3956 11.47V11.6163C13.4459 13.903 13.4733 15.3391 13.4733 15.7987C13.4733 16.2583 13.503 16.8551 13.5236 17.2668C11.9938 17.2988 11.3924 17.3171 11.1592 17.3285C10.8101 17.3384 10.4644 17.3984 10.1324 17.5069C9.81131 16.309 9.60006 15.0844 9.50134 13.8481C9.40525 12.6004 9.584 11.3468 10.025 10.1757L10.041 10.1506V10.1254C10.041 10.1025 10.3062 9.54688 11.3307 9.54688" fill="white"/>
<path d="M6.67952 9.42334C6.85654 9.42498 7.03287 9.44568 7.20546 9.48508C7.5798 9.55177 7.92641 9.72666 8.20246 9.98816C8.31987 10.0998 8.42987 10.219 8.53174 10.3449C8.20483 11.5703 8.08656 12.8419 8.18188 14.1065C8.29989 15.5056 8.56196 16.8888 8.96392 18.234C8.69983 18.5567 8.48908 18.9195 8.33966 19.3088C8.26804 19.4837 8.21069 19.6642 8.16816 19.8484C7.09385 18.7949 6.23893 17.5389 5.65279 16.1531C5.1467 14.8175 4.93078 13.3894 5.01938 11.9639C5.01938 11.7855 5.03081 11.6255 5.03081 11.4814C5.03081 10.8183 5.14057 9.97215 5.65279 9.70003C5.96987 9.52351 6.3258 9.42844 6.68866 9.42334" fill="white"/>
<path d="M1.94831 9.83252C2.28931 9.8693 2.61852 9.97849 2.9139 10.1528C3.20928 10.3272 3.46401 10.5626 3.66104 10.8433C3.48829 12.4375 3.60605 14.0497 4.00862 15.6019C4.5167 17.2545 5.37459 18.7785 6.52398 20.0701C7.16426 20.7744 7.91201 21.4627 8.2573 21.7714C8.3692 22.0757 8.53582 22.3571 8.74894 22.6015C8.82023 22.6825 8.89661 22.7588 8.97761 22.8301C8.69948 23.1007 8.46772 23.4151 8.2916 23.7608C8.13049 24.1432 8.03911 24.5513 8.02177 24.9659C6.11865 24.1672 4.42075 22.9485 3.05507 21.4009C1.05862 19.037 -0.0215856 16.0342 0.0114794 12.9402C0.146394 10.2099 0.519126 9.83252 1.91858 9.83252H1.94831Z" fill="white"/>
</g>
<defs>
<clipPath id="clip0_45_3919">
<rect width="119" height="32" fill="white"/>
</clipPath>
</defs>
</svg>
