<?xml version="1.0" encoding="UTF-8" standalone="no"?>
<!DOCTYPE svg PUBLIC "-//W3C//DTD SVG 1.1//EN" "http://www.w3.org/Graphics/SVG/1.1/DTD/svg11.dtd">
<svg width="100%" height="100%" viewBox="0 0 272 31" version="1.1" xmlns="http://www.w3.org/2000/svg" xmlns:xlink="http://www.w3.org/1999/xlink" xml:space="preserve" xmlns:serif="http://www.serif.com/" style="fill-rule:evenodd;clip-rule:evenodd;stroke-linejoin:round;stroke-miterlimit:2;">
    <path d="M36.41,4.53C29.84,4.53 23.46,9.54 23.46,17.72C23.46,24.11 28.5,30.33 36.19,30.33C42.63,30.33 45.89,26.54 46.85,25.06L41.47,23.11C41.42,23.18 40.73,23.79 40.11,24.13C39.1,24.7 37.83,25.1 36.58,25.1C32.29,25.1 29.61,21.79 29.61,19.75L48.67,19.75C48.67,19.75 48.87,18.86 48.87,17.48C48.87,11.84 45,4.53 36.41,4.53ZM29.84,14.95C29.84,13.34 32.48,9.82 36.58,9.82C40.26,9.82 43.32,13.35 43.32,14.95L29.83,14.95L29.84,14.95Z" style="fill:white;fill-rule:nonzero;"/>
    <path d="M64.54,4.53C57.97,4.53 51.59,9.54 51.59,17.72C51.59,24.11 56.63,30.33 64.32,30.33C70.76,30.33 74.02,26.54 74.98,25.06L69.6,23.11C69.55,23.18 68.86,23.79 68.24,24.13C67.23,24.7 65.96,25.1 64.71,25.1C60.42,25.1 57.74,21.79 57.74,19.75L76.8,19.75C76.8,19.75 77,18.86 77,17.48C77,11.84 73.13,4.53 64.54,4.53ZM57.97,14.95C57.97,13.34 60.61,9.82 64.71,9.82C68.39,9.82 71.45,13.35 71.45,14.95L57.96,14.95L57.97,14.95Z" style="fill:white;fill-rule:nonzero;"/>
    <path d="M92.67,4.53C86.1,4.53 79.72,9.54 79.72,17.72C79.72,24.11 84.76,30.33 92.45,30.33C98.89,30.33 102.15,26.54 103.11,25.06L97.73,23.11C97.68,23.18 96.99,23.79 96.37,24.13C95.36,24.7 94.09,25.1 92.84,25.1C88.55,25.1 85.87,21.79 85.87,19.75L104.93,19.75C104.93,19.75 105.13,18.86 105.13,17.48C105.13,11.84 101.26,4.53 92.67,4.53ZM86.1,14.95C86.1,13.34 88.74,9.82 92.84,9.82C96.52,9.82 99.58,13.35 99.58,14.95L86.09,14.95L86.1,14.95Z" style="fill:white;fill-rule:nonzero;"/>
    <path d="M270.32,12.4C269.64,10.84 268.7,9.47 267.51,8.31C266.31,7.15 264.91,6.22 263.3,5.54C261.69,4.86 259.96,4.52 258.1,4.52C256.24,4.52 254.42,4.87 252.81,5.58C251.2,6.28 249.8,7.23 248.62,8.39C247.44,9.56 246.51,10.91 245.85,12.44C245.19,13.97 244.86,15.58 244.86,17.27C244.86,18.83 245.16,20.39 245.77,21.94C246.38,23.49 247.24,24.88 248.38,26.13C249.51,27.36 250.9,28.38 252.54,29.16C254.18,29.94 256.03,30.33 258.1,30.33C260.17,30.33 262.02,29.93 263.68,29.13C265.33,28.33 266.71,27.31 267.84,26.08C268.96,24.84 269.82,23.45 270.43,21.92C271.03,20.39 271.34,18.86 271.34,17.36C271.34,15.62 271,13.97 270.32,12.4ZM265.12,20.29C264.74,21.22 264.21,22.04 263.52,22.76C262.83,23.47 262.03,24.04 261.11,24.46C260.19,24.87 259.18,25.08 258.1,25.08C256.96,25.08 255.93,24.86 255,24.44C254.08,24.01 253.28,23.43 252.61,22.71C251.93,21.99 251.41,21.17 251.05,20.26C250.69,19.35 250.51,18.4 250.51,17.42C250.51,16.44 250.69,15.52 251.05,14.6C251.41,13.68 251.93,12.87 252.58,12.15C253.24,11.44 254.04,10.87 254.98,10.44C255.91,10.01 256.95,9.79 258.1,9.79C259.25,9.79 260.28,10 261.21,10.44C262.15,10.86 262.94,11.43 263.6,12.15C264.26,12.87 264.77,13.68 265.13,14.58C265.5,15.49 265.68,16.42 265.68,17.38C265.68,18.39 265.49,19.37 265.12,20.3L265.12,20.29Z" style="fill:white;fill-rule:nonzero;"/>
    <path d="M174.84,1.58L169.39,3.03L169.39,22.42C169.39,27.45 172.55,30.34 178.07,30.34L178.07,24.89C174.84,24.89 174.84,23.8 174.84,22.42L174.84,13L178.07,13L178.07,7.55L174.84,7.55L174.84,1.58Z" style="fill:white;fill-rule:nonzero;"/>
    <path d="M197.26,19.2C197.26,22.7 195.15,24.88 191.75,24.88C188.35,24.88 186.24,22.55 186.24,19.23L186.24,4.57L180.79,6.03L180.79,19.22C180.79,25.55 185.5,30.32 191.75,30.32C198,30.32 202.71,25.74 202.71,19.19L202.71,4.59L197.26,6.04L197.26,19.2Z" style="fill:white;fill-rule:nonzero;"/>
    <path d="M6.24,12.01C6.24,10.44 7.56,9.16 10.98,9.16C13.19,9.16 15.73,9.88 18.05,11.2L18.12,11.01L19.68,6.74C17.36,5.28 14.16,4.53 11.02,4.53C3.92,4.52 0.5,8.05 0.5,12.29C0.5,21.56 15.01,18.35 15.01,23.02C15.01,24.55 13.62,25.69 10.2,25.69C7.21,25.69 3.88,24.6 1.65,22.87L1.49,23.31L-0,27.43C2.21,29.14 6.2,30.32 10.16,30.32C17.29,30.32 20.75,26.76 20.75,22.58C20.75,13.42 6.24,16.59 6.24,11.99L6.24,12.01Z" style="fill:white;fill-rule:nonzero;"/>
    <path d="M152.16,12.01C152.16,10.44 153.48,9.16 156.9,9.16C159.11,9.16 161.65,9.88 163.97,11.2L164.04,11.01L165.6,6.74C163.28,5.28 160.08,4.53 156.94,4.53C149.85,4.53 146.42,8.06 146.42,12.3C146.42,21.57 160.93,18.36 160.93,23.03C160.93,24.56 159.54,25.7 156.12,25.7C153.13,25.7 149.8,24.61 147.57,22.88L147.41,23.32L145.93,27.44C148.14,29.15 152.13,30.33 156.09,30.33C163.22,30.33 166.68,26.77 166.68,22.59C166.68,13.43 152.17,16.6 152.17,12L152.16,12.01Z" style="fill:white;fill-rule:nonzero;"/>
    <rect x="236.71" y="7.54" width="5.44" height="22.79" style="fill:white;"/>
    <rect x="236.71" y="0" width="5.44" height="4.52" style="fill:white;"/>
    <path d="M129.56,7.49C128.58,6.71 127.49,6.06 126.29,5.55C124.68,4.87 122.95,4.53 121.09,4.53C119.23,4.53 117.41,4.88 115.8,5.59C114.19,6.29 112.79,7.24 111.61,8.4C110.43,9.57 109.5,10.92 108.84,12.45C108.18,13.98 107.85,15.59 107.85,17.28C107.85,18.84 108.15,20.4 108.76,21.95C109.37,23.5 110.23,24.89 111.37,26.14C112.5,27.37 113.89,28.39 115.53,29.17C117.17,29.95 119.02,30.34 121.09,30.34C123.16,30.34 125.01,29.94 126.67,29.14C127.75,28.62 128.71,27.99 129.56,27.28L129.56,30.34L135.05,30.34L135.05,0.03L129.56,1.51L129.56,7.49ZM128.11,20.29C127.73,21.22 127.2,22.04 126.51,22.76C125.82,23.47 125.02,24.04 124.1,24.46C123.18,24.87 122.17,25.08 121.09,25.08C119.95,25.08 118.92,24.86 117.99,24.44C117.07,24.01 116.27,23.43 115.6,22.71C114.92,21.99 114.4,21.17 114.04,20.26C113.68,19.35 113.5,18.4 113.5,17.42C113.5,16.44 113.68,15.52 114.04,14.6C114.41,13.68 114.92,12.87 115.57,12.15C116.23,11.44 117.03,10.87 117.97,10.44C118.9,10.01 119.94,9.79 121.09,9.79C122.24,9.79 123.27,10 124.2,10.44C125.14,10.86 125.93,11.43 126.59,12.15C127.25,12.87 127.76,13.68 128.12,14.58C128.49,15.49 128.67,16.42 128.67,17.38C128.67,18.4 128.48,19.37 128.11,20.3L128.11,20.29Z" style="fill:white;fill-rule:nonzero;"/>
    <path d="M227.14,7.49C226.16,6.71 225.07,6.06 223.87,5.55C222.26,4.87 220.53,4.53 218.67,4.53C216.81,4.53 214.99,4.88 213.38,5.59C211.77,6.29 210.37,7.24 209.19,8.4C208.01,9.57 207.08,10.92 206.42,12.45C205.76,13.98 205.43,15.59 205.43,17.28C205.43,18.84 205.73,20.4 206.34,21.95C206.95,23.5 207.81,24.89 208.95,26.14C210.08,27.37 211.47,28.39 213.11,29.17C214.75,29.95 216.6,30.34 218.67,30.34C220.74,30.34 222.59,29.94 224.25,29.14C225.33,28.62 226.29,27.99 227.14,27.28L227.14,30.34L232.63,30.34L232.63,0.04L227.14,1.51L227.14,7.49ZM225.69,20.29C225.31,21.22 224.78,22.04 224.09,22.76C223.4,23.47 222.6,24.04 221.68,24.46C220.76,24.87 219.75,25.08 218.67,25.08C217.53,25.08 216.5,24.86 215.57,24.44C214.65,24.01 213.85,23.43 213.18,22.71C212.5,21.99 211.98,21.17 211.62,20.26C211.26,19.35 211.08,18.4 211.08,17.42C211.08,16.44 211.26,15.52 211.62,14.6C211.99,13.68 212.5,12.87 213.15,12.15C213.81,11.44 214.61,10.87 215.55,10.44C216.48,10.01 217.52,9.79 218.67,9.79C219.82,9.79 220.85,10 221.78,10.44C222.71,10.86 223.51,11.43 224.17,12.15C224.83,12.87 225.34,13.68 225.7,14.58C226.07,15.49 226.25,16.42 226.25,17.38C226.25,18.4 226.06,19.37 225.69,20.3L225.69,20.29Z" style="fill:white;fill-rule:nonzero;"/>
</svg>
