<?xml version="1.0" encoding="UTF-8"?>
<svg id="svg2230" xmlns="http://www.w3.org/2000/svg" viewBox="0 0 1768.94 172.63">
  <defs>
    <style>
      .cls-1 {
        fill: #fff;
      }
    </style>
  </defs>
  <g>
    <path id="path12021-3-99-8-3-5-9" class="cls-1" d="M1052.42,33.61c1.9,0,3.47,1.57,3.47,3.36v98.58c0,1.9-1.57,3.47-3.36,3.47-1.9,0-3.36-1.57-3.36-3.36V36.97c0-1.79,1.46-3.25,3.25-3.36h0Z"/>
    <path id="path12021-6-6-7-9-0-9" class="cls-1" d="M1094.59,33.61c1.9,0,3.47,1.57,3.47,3.36v98.58c0,1.9-1.57,3.47-3.36,3.47-1.9,0-3.36-1.57-3.36-3.36V36.97c0-1.79,1.46-3.25,3.25-3.36h0Z"/>
    <path id="path12021-6-1-5-1-9-1-4" class="cls-1" d="M1115.68,50.41c1.9,0,3.47,1.57,3.47,3.36V118.74c0,1.9-1.57,3.47-3.36,3.47-1.9,0-3.36-1.57-3.36-3.36V53.77c0-1.79,1.46-3.25,3.25-3.36h0Z"/>
    <path id="path12021-6-2-1-4-5-2-2" class="cls-1" d="M1031.33,50.41c1.9,0,3.47,1.57,3.47,3.36V118.74c0,1.9-1.57,3.47-3.36,3.47-1.9,0-3.36-1.57-3.36-3.36V53.77c0-1.79,1.46-3.25,3.25-3.36Z"/>
    <path id="path12021-3-9-1-4-8-0-6" class="cls-1" d="M1073.5,0c1.9,0,3.47,1.57,3.47,3.36V169.15c0,1.9-1.57,3.47-3.36,3.47-1.9,0-3.36-1.57-3.36-3.36V3.36c0-1.79,1.46-3.25,3.25-3.36Z"/>
    <path id="path12021-6-1-3-3-3-9-2-3" class="cls-1" d="M1136.77,67.21c1.9,0,3.47,1.57,3.47,3.36v31.37c0,1.9-1.57,3.47-3.36,3.47-1.9,0-3.36-1.57-3.36-3.36v-31.48c0-1.79,1.46-3.25,3.25-3.36h0Z"/>
    <path id="path12021-6-1-1-7-7-9-1-9" class="cls-1" d="M1010.24,67.21c1.9,0,3.47,1.57,3.47,3.36v31.37c0,1.9-1.57,3.47-3.36,3.47-1.9,0-3.36-1.57-3.36-3.36v-31.48c0-1.79,1.46-3.25,3.25-3.36Z"/>
  </g>
  <g>
    <path class="cls-1" d="M37.16,135.57c-7.42,0-14.44-1.67-21.08-4.99-6.63-3.33-12-8.01-16.08-14.05v-.86l6.78-5.85h.86c3.71,5.04,8.17,8.98,13.37,11.81,5.21,2.83,10.38,4.25,15.51,4.25,6.89,0,12.38-1.53,16.44-4.6,4.07-3.07,6.1-6.98,6.1-11.73,0-2.71-.49-5.04-1.46-6.99-.98-1.95-2.69-3.68-5.14-5.21-2.45-1.52-4.56-2.66-6.35-3.42-1.78-.76-4.74-1.83-8.88-3.21-4.14-1.38-7.18-2.45-9.13-3.21-3.33-1.28-5.99-2.44-7.99-3.46-2-1.02-4.34-2.51-7.03-4.46-2.69-1.95-4.71-4.36-6.06-7.24-1.36-2.88-2.03-6.15-2.03-9.81,0-7.42,2.88-13.52,8.63-18.3,5.75-4.78,13.24-7.17,22.47-7.17,13.46,0,23.9,4.88,31.31,14.62v.86l-6.49,5.99h-.86c-6.33-7.89-14.31-11.84-23.97-11.84-5.94,0-10.81,1.37-14.59,4.1-3.78,2.73-5.67,6.29-5.67,10.66s1.49,7.55,4.46,9.81c2.97,2.26,7.62,4.55,13.95,6.88,1.28,.48,3.28,1.2,5.99,2.18,2.71,.98,4.81,1.72,6.31,2.25,1.5,.52,3.45,1.32,5.85,2.39,2.4,1.07,4.3,2.07,5.71,3,1.4,.93,2.94,2.15,4.6,3.67,1.66,1.52,2.96,3.06,3.89,4.6,.93,1.55,1.7,3.45,2.32,5.71,.62,2.26,.93,4.65,.93,7.17,0,7.99-3.01,14.4-9.02,19.22-6.02,4.83-13.9,7.24-23.65,7.24Z"/>
    <path class="cls-1" d="M152.79,48.19h-52.57v33.03h41.94v9.34h-41.94v33.88h52.57v9.34h-63.06V38.85h63.06v9.34Z"/>
    <path class="cls-1" d="M239.24,38.85h10.27v96.37h-4.71l-61.49-75.47v74.04h-10.2V38.85h4.64l61.49,75.54V38.85Z"/>
    <path class="cls-1" d="M304.73,135.57c-7.42,0-14.44-1.67-21.08-4.99-6.63-3.33-12-8.01-16.08-14.05v-.86l6.78-5.85h.86c3.71,5.04,8.17,8.98,13.37,11.81,5.21,2.83,10.38,4.25,15.51,4.25,6.89,0,12.38-1.53,16.44-4.6,4.07-3.07,6.1-6.98,6.1-11.73,0-2.71-.49-5.04-1.46-6.99-.98-1.95-2.69-3.68-5.14-5.21-2.45-1.52-4.56-2.66-6.35-3.42-1.78-.76-4.74-1.83-8.88-3.21-4.14-1.38-7.18-2.45-9.13-3.21-3.33-1.28-5.99-2.44-7.99-3.46-2-1.02-4.34-2.51-7.03-4.46-2.69-1.95-4.71-4.36-6.06-7.24-1.36-2.88-2.03-6.15-2.03-9.81,0-7.42,2.88-13.52,8.63-18.3,5.75-4.78,13.24-7.17,22.47-7.17,13.46,0,23.9,4.88,31.31,14.62v.86l-6.49,5.99h-.86c-6.33-7.89-14.31-11.84-23.97-11.84-5.94,0-10.81,1.37-14.59,4.1-3.78,2.73-5.67,6.29-5.67,10.66s1.49,7.55,4.46,9.81c2.97,2.26,7.62,4.55,13.95,6.88,1.28,.48,3.28,1.2,5.99,2.18,2.71,.98,4.81,1.72,6.31,2.25,1.5,.52,3.45,1.32,5.85,2.39,2.4,1.07,4.3,2.07,5.71,3,1.4,.93,2.94,2.15,4.6,3.67,1.66,1.52,2.96,3.06,3.89,4.6,.93,1.55,1.7,3.45,2.32,5.71,.62,2.26,.93,4.65,.93,7.17,0,7.99-3.01,14.4-9.02,19.22-6.02,4.83-13.9,7.24-23.65,7.24Z"/>
    <path class="cls-1" d="M393.1,38.85l43.8,94.08-.43,.86h-10.34l-9.84-21.47h-51.57l-9.92,21.47h-10.06l-.43-.86,44.08-94.08h4.71Zm-24.11,64.13h42.94l-21.33-46.94-21.61,46.94Z"/>
    <path class="cls-1" d="M473.21,48.19v85.6h-10.49V48.19h-31.53v-9.34h73.61v9.34h-31.6Z"/>
    <path class="cls-1" d="M520.43,38.85h10.49v94.94h-10.49V38.85Z"/>
    <path class="cls-1" d="M637.16,121.45c-9.58,9.42-21.48,14.12-35.7,14.12s-26.13-4.71-35.74-14.12c-9.61-9.42-14.41-21.14-14.41-35.17s4.8-25.74,14.41-35.13c9.61-9.39,21.52-14.09,35.74-14.09s26.12,4.7,35.7,14.09c9.58,9.39,14.37,21.1,14.37,35.13s-4.79,25.75-14.37,35.17Zm-63.91-6.74c7.49,7.44,16.88,11.16,28.18,11.16s20.7-3.72,28.21-11.16c7.51-7.44,11.27-16.91,11.27-28.39s-3.76-20.96-11.27-28.43c-7.51-7.47-16.92-11.2-28.21-11.2s-20.69,3.73-28.18,11.2c-7.49,7.47-11.23,16.94-11.23,28.43s3.74,20.95,11.23,28.39Z"/>
    <path class="cls-1" d="M738.13,38.85h10.27v96.37h-4.71l-61.49-75.47v74.04h-10.2V38.85h4.64l61.49,75.54V38.85Z"/>
    <path class="cls-1" d="M813.1,38.85l43.8,94.08-.43,.86h-10.34l-9.84-21.47h-51.57l-9.92,21.47h-10.06l-.43-.86,44.08-94.08h4.71Zm-24.11,64.13h42.94l-21.33-46.94-21.61,46.94Z"/>
    <path class="cls-1" d="M930.58,124.45v9.34h-57.63V38.85h10.49V124.45h47.15Z"/>
  </g>
  <g>
    <path class="cls-1" d="M1238.35,132.84c-7.01,0-13.64-1.57-19.91-4.71-6.26-3.14-11.33-7.57-15.19-13.27v-.81l6.4-5.52h.81c3.5,4.76,7.71,8.48,12.63,11.15,4.92,2.67,9.8,4.01,14.65,4.01,6.51,0,11.69-1.45,15.53-4.34,3.84-2.9,5.76-6.59,5.76-11.08,0-2.56-.46-4.76-1.38-6.6-.92-1.84-2.54-3.48-4.85-4.92-2.31-1.44-4.31-2.51-6-3.23-1.68-.72-4.48-1.73-8.39-3.03-3.91-1.3-6.78-2.31-8.62-3.03-3.14-1.21-5.66-2.3-7.54-3.27-1.89-.97-4.1-2.37-6.64-4.21-2.54-1.84-4.45-4.12-5.73-6.84-1.28-2.72-1.92-5.8-1.92-9.26,0-7.01,2.72-12.77,8.15-17.28,5.43-4.51,12.51-6.77,21.22-6.77,12.71,0,22.57,4.6,29.58,13.81v.81l-6.13,5.66h-.81c-5.97-7.45-13.52-11.18-22.64-11.18-5.61,0-10.21,1.29-13.78,3.87-3.57,2.58-5.36,5.94-5.36,10.07s1.4,7.13,4.21,9.26c2.81,2.13,7.2,4.3,13.17,6.5,1.21,.45,3.1,1.13,5.66,2.05,2.56,.92,4.55,1.63,5.96,2.12,1.41,.49,3.25,1.25,5.52,2.26,2.27,1.01,4.06,1.95,5.39,2.83,1.32,.88,2.77,2.03,4.35,3.47,1.57,1.44,2.79,2.89,3.67,4.35s1.61,3.26,2.19,5.39c.58,2.13,.88,4.39,.88,6.77,0,7.54-2.84,13.6-8.52,18.15-5.68,4.56-13.13,6.84-22.33,6.84Z"/>
    <path class="cls-1" d="M1357.39,42.3l-34.9,54.64v34.22h-9.9v-33.95l-35.64-54.91,.4-.81h10.38l29.78,47.29,29.71-47.29h9.77l.4,.81Z"/>
    <path class="cls-1" d="M1398.89,132.84c-7.01,0-13.64-1.57-19.91-4.71-6.26-3.14-11.33-7.57-15.19-13.27v-.81l6.4-5.52h.81c3.5,4.76,7.71,8.48,12.63,11.15,4.92,2.67,9.8,4.01,14.65,4.01,6.51,0,11.69-1.45,15.53-4.34,3.84-2.9,5.76-6.59,5.76-11.08,0-2.56-.46-4.76-1.38-6.6-.92-1.84-2.54-3.48-4.85-4.92-2.31-1.44-4.31-2.51-6-3.23-1.68-.72-4.48-1.73-8.39-3.03-3.91-1.3-6.78-2.31-8.62-3.03-3.14-1.21-5.66-2.3-7.54-3.27-1.89-.97-4.1-2.37-6.64-4.21-2.54-1.84-4.45-4.12-5.73-6.84-1.28-2.72-1.92-5.8-1.92-9.26,0-7.01,2.72-12.77,8.15-17.28,5.43-4.51,12.51-6.77,21.22-6.77,12.71,0,22.57,4.6,29.58,13.81v.81l-6.13,5.66h-.81c-5.97-7.45-13.52-11.18-22.64-11.18-5.61,0-10.21,1.29-13.78,3.87-3.57,2.58-5.36,5.94-5.36,10.07s1.4,7.13,4.21,9.26c2.81,2.13,7.2,4.3,13.17,6.5,1.21,.45,3.1,1.13,5.66,2.05,2.56,.92,4.55,1.63,5.96,2.12,1.41,.49,3.25,1.25,5.52,2.26,2.27,1.01,4.06,1.95,5.39,2.83,1.32,.88,2.77,2.03,4.35,3.47,1.57,1.44,2.79,2.89,3.67,4.35s1.61,3.26,2.19,5.39c.58,2.13,.88,4.39,.88,6.77,0,7.54-2.84,13.6-8.52,18.15-5.68,4.56-13.13,6.84-22.33,6.84Z"/>
    <path class="cls-1" d="M1475.96,50.31v80.84h-9.9V50.31h-29.78v-8.83h69.52v8.83h-29.84Z"/>
    <path class="cls-1" d="M1580.11,50.31h-49.65v31.19h39.61v8.83h-39.61v32h49.65v8.83h-59.55V41.49h59.55v8.83Z"/>
    <path class="cls-1" d="M1690.45,131.15h-9.23l-6.74-64.74-29.98,64.74h-4.38l-29.44-64.54-6.74,64.54h-9.23l9.77-89.67h4.45l33.35,73.97,33.95-73.97h4.45l9.77,89.67Z"/>
    <path class="cls-1" d="M1738.08,132.84c-7.01,0-13.64-1.57-19.91-4.71-6.26-3.14-11.33-7.57-15.19-13.27v-.81l6.4-5.52h.81c3.5,4.76,7.71,8.48,12.63,11.15,4.92,2.67,9.8,4.01,14.65,4.01,6.51,0,11.69-1.45,15.53-4.34,3.84-2.9,5.76-6.59,5.76-11.08,0-2.56-.46-4.76-1.38-6.6-.92-1.84-2.54-3.48-4.85-4.92-2.31-1.44-4.31-2.51-6-3.23-1.68-.72-4.48-1.73-8.39-3.03-3.91-1.3-6.78-2.31-8.62-3.03-3.14-1.21-5.66-2.3-7.54-3.27-1.89-.97-4.1-2.37-6.64-4.21-2.54-1.84-4.45-4.12-5.73-6.84-1.28-2.72-1.92-5.8-1.92-9.26,0-7.01,2.72-12.77,8.15-17.28,5.43-4.51,12.51-6.77,21.22-6.77,12.71,0,22.57,4.6,29.58,13.81v.81l-6.13,5.66h-.81c-5.97-7.45-13.52-11.18-22.64-11.18-5.61,0-10.21,1.29-13.78,3.87-3.57,2.58-5.36,5.94-5.36,10.07s1.4,7.13,4.21,9.26c2.81,2.13,7.2,4.3,13.17,6.5,1.21,.45,3.1,1.13,5.66,2.05,2.56,.92,4.55,1.63,5.96,2.12,1.41,.49,3.25,1.25,5.52,2.26,2.27,1.01,4.06,1.95,5.39,2.83,1.32,.88,2.77,2.03,4.35,3.47,1.57,1.44,2.79,2.89,3.67,4.35s1.61,3.26,2.19,5.39c.58,2.13,.88,4.39,.88,6.77,0,7.54-2.84,13.6-8.52,18.15-5.68,4.56-13.13,6.84-22.33,6.84Z"/>
  </g>
</svg>