<?xml version="1.0" encoding="UTF-8"?>
<svg id="Layer_1" data-name="Layer 1" xmlns="http://www.w3.org/2000/svg" viewBox="0 0 803.6 442.79">
  <defs>
    <style>
      .cls-1 {
        fill: #fff;
      }
    </style>
  </defs>
  <path class="cls-1" d="M523.84,170.57h-40.34c-15.47,25.06-43.03,41.86-74.53,41.86-48.39,0-87.7-39.5-87.7-88.08s39.3-88.14,87.7-88.14c32.28,0,60.44,17.65,75.67,43.8h39.94C506.74,33.28,461.69,0,408.97,0,343.25,0,289.32,51.74,285.43,116.84h-38.16C243.39,51.76,189.49,0,123.77,0S0,55.79,0,124.35s55.53,124.3,123.77,124.3,119.64-51.75,123.5-116.84h38.16c3.86,65.09,57.8,116.84,123.54,116.84,51.99,0,96.58-32.37,114.87-78.08ZM123.77,212.43c-48.39,0-87.72-39.5-87.72-88.08S75.38,36.21,123.77,36.21s87.7,39.56,87.7,88.14-39.34,88.08-87.7,88.08Z"/>
  <path class="cls-1" d="M679.85,0c-65.72,0-119.62,51.77-123.5,116.84h-103.36c-3.52-19.56-20.5-34.39-40.95-34.39-23.06,0-41.71,18.73-41.71,41.88s18.66,41.87,41.71,41.87c20.46,0,37.44-14.84,40.96-34.39h103.36c3.86,65.09,57.77,116.84,123.51,116.84s123.75-55.75,123.75-124.3S748.09,0,679.85,0Zm0,212.44c-48.36,0-87.7-39.52-87.7-88.08s39.34-88.14,87.7-88.14,87.73,39.55,87.73,88.14-39.33,88.08-87.73,88.08Z"/>
  <polygon class="cls-1" points="168.96 284.89 131.15 399.7 92.41 284.89 58.59 284.89 113.07 440.09 147 440.09 202.02 284.89 168.96 284.89"/>
  <path class="cls-1" d="M252.48,324.95c-10.95,0-20.84,2.46-29.72,7.34-8.87,4.87-15.73,11.96-20.57,21.23-4.82,9.27-7.24,18.86-7.24,28.77,0,12.95,2.42,23.93,7.24,32.96,4.84,9.02,11.91,15.87,21.2,20.54,9.29,4.67,19.06,7.01,29.3,7.01,16.55,0,30.29-5.59,41.19-16.81,10.92-11.22,16.37-25.36,16.37-42.42s-5.41-30.91-16.22-41.98c-10.78-11.07-24.65-16.62-41.54-16.62Zm19.45,84.67c-5.19,5.96-11.63,8.92-19.28,8.92s-14.14-2.96-19.37-8.92c-5.21-5.95-7.84-14.54-7.84-25.75s2.62-19.79,7.84-25.73c5.23-5.95,11.67-8.94,19.37-8.94s14.09,2.98,19.28,8.94c5.23,5.95,7.82,14.46,7.82,25.52s-2.59,20.02-7.82,25.97Z"/>
  <rect class="cls-1" x="333.55" y="284.89" width="29.48" height="155.2"/>
  <path class="cls-1" d="M433.51,418.21c-1.94,0-3.59-.48-4.95-1.48-1.36-1-2.23-2.26-2.61-3.78-.38-1.53-.56-6.91-.56-16.13v-45.59h20.1v-23.57h-20.1v-39.73l-29.5,17.51v22.22h-13.77v23.57h13.77v49.19c0,10.55,.3,17.56,.94,21.03,.76,4.9,2.12,8.77,4.09,11.63,1.97,2.88,5.08,5.22,9.27,7.02,4.25,1.8,8.98,2.7,14.27,2.7,8.57,0,16.25-1.47,23.05-4.41l-2.18-23.02c-5.16,1.91-9.1,2.86-11.81,2.86Z"/>
  <path class="cls-1" d="M556.24,403.1l.34-34.78c0-12.92-1.33-21.82-3.97-26.66-2.63-4.84-7.16-8.84-13.62-11.99-6.48-3.14-16.29-4.72-29.49-4.72-14.55,0-25.48,2.65-32.86,7.94-7.38,5.28-12.55,13.4-15.58,24.38l26.8,4.71c1.84-5.23,4.21-8.9,7.15-11,2.95-2.09,7.05-3.14,12.34-3.14,7.77,0,13.05,1.23,15.88,3.67,2.8,2.44,4.22,6.51,4.22,12.23v2.96c-5.34,2.27-14.91,4.72-28.7,7.32-10.26,1.98-18.09,4.31-23.52,6.97-5.43,2.66-9.64,6.46-12.66,11.44-3.02,4.99-4.52,10.67-4.52,17.05,0,9.62,3.3,17.58,9.92,23.88,6.59,6.3,15.64,9.44,27.09,9.44,6.5,0,12.62-1.23,18.37-3.7,5.73-2.46,11.12-6.16,16.13-11.11,.22,.56,.55,1.71,1.05,3.45,1.12,3.83,2.07,6.73,2.84,8.66h29.49c-2.58-5.37-4.34-10.4-5.27-15.11-.96-4.69-1.43-11.98-1.43-21.88Zm-28.8-10.92c0,7.16-.39,12.01-1.17,14.55-1.12,3.9-3.49,7.19-7.07,9.87-4.82,3.55-9.92,5.3-15.25,5.3-4.77,0-8.72-1.51-11.78-4.56-3.09-3.03-4.63-6.66-4.63-10.84s1.92-7.73,5.77-10.49c2.53-1.7,7.9-3.45,16.12-5.23,8.2-1.77,14.21-3.28,18.02-4.56v5.95Z"/>
  <rect class="cls-1" x="585.49" y="284.9" width="29.51" height="27.6"/>
  <rect class="cls-1" x="585.49" y="327.65" width="29.51" height="112.45"/>
  <path class="cls-1" d="M708.3,413.7c-3.59,3.23-8.16,4.84-13.76,4.84-7.52,0-13.48-2.76-17.91-8.27-4.46-5.52-6.7-14.96-6.7-28.34,0-12.02,2.22-20.59,6.62-25.72,4.38-5.14,10.28-7.7,17.7-7.7,5.54,0,10.07,1.47,13.55,4.41,3.5,2.94,5.73,7.31,6.71,13.1l29.16-5.39c-3.54-12.03-9.31-20.98-17.35-26.88-8.06-5.87-18.91-8.81-32.55-8.81-16.68,0-29.92,5.2-39.66,15.56-9.79,10.37-14.68,24.87-14.68,43.46s4.87,32.8,14.59,43.23c9.71,10.38,22.77,15.59,39.15,15.59,14.4,0,25.88-3.43,34.47-10.29,8.54-6.86,14.34-17.01,17.36-30.45l-29.15-5.05c-1.48,7.9-3.99,13.45-7.57,16.7Z"/>
  <polygon class="cls-1" points="701.48 102.73 701.48 52.33 658.28 52.33 658.28 102.73 607.83 102.73 607.83 145.93 658.28 145.93 658.28 196.33 701.48 196.33 701.48 145.93 751.83 145.93 751.83 102.73 701.48 102.73"/>
  <rect class="cls-1" x="51.72" y="102.73" width="144" height="43.2"/>
</svg>